#N canvas 170 22 509 703 10;
#X floatatom 51 128 5 0 0 0 - - -;
#X obj 51 30 inlet;
#X obj 51 665 outlet;
#X obj 111 665 outlet;
#X text 21 359 正転;
#X text 131 359 逆転;
#X obj 51 102 clip -1 1;
#X obj 51 155 vsl 8 64 -1 1 0 0 empty empty empty 0 -9 0 10 -262144
-1 -1 1103 1;
#X obj 51 230 > 0;
#X obj 51 277 tgl 15 0 empty empty empty 17 7 0 10 -262144 -1 -1 0
1;
#X obj 51 253 change;
#X obj 51 326 sel 1 0;
#X obj 51 360 bng 15 250 50 0 empty empty empty 17 7 0 10 -262144 -1
-1;
#X obj 111 360 bng 15 250 50 0 empty empty empty 17 7 0 10 -262144
-1 -1;
#X msg 81 513 0;
#X msg 51 513 1;
#X floatatom 51 642 5 0 0 0 - - -;
#X msg 111 513 1;
#X floatatom 111 642 5 0 0 0 - - -;
#X text 47 12 モーターのコントロール;
#X text 61 177 - 0を通るタイミングでトリガー;
#X floatatom 162 350 10 0 0 0 - - -;
#X obj 81 470 delay 100;
#X obj 81 493 bng 15 250 50 0 empty empty empty 17 7 0 10 -262144 -1
-1;
#X obj 271 262 vsl 8 64 0 1 0 0 empty empty empty 0 -9 0 10 -262144
-1 -1 6300 1;
#X text 286 313 LFOでモーターの回転持続時間を変更;
#X floatatom 162 443 10 0 0 0 - - -;
#X floatatom 271 385 5 0 0 0 - - -;
#X obj 271 159 r Kv;
#X floatatom 271 185 5 0 0 0 - - -;
#X obj 271 208 / 127;
#X floatatom 271 234 5 0 0 0 - - -;
#X text 168 369 前回トリガーからの;
#X text 169 387 経過時間（ミリ秒）;
#X obj 271 339 * 0.3;
#X text 306 156 同期現象の結合強度;
#X text 228 442 モーターの回転持続時間;
#X obj 162 420 * 0.9;
#X obj 271 361 + 0.6;
#X obj 51 300 t f f;
#X obj 173 665 outlet;
#X obj 206 591 tgl 15 0 empty empty empty 17 7 0 10 -262144 -1 -1 1
1;
#X obj 173 616 spigot;
#X obj 173 471 inlet;
#X obj 173 517 vsl 8 64 0 127 0 0 empty empty empty 0 -9 0 10 -262144
-1 -1 6281 1;
#X obj 173 493 * 127;
#X obj 173 590 i;
#X floatatom 173 642 5 0 0 0 - - -;
#X text 217 639 モーターの回転速度;
#X text 224 576 モーターが回転している間のみ;
#X text 226 592 回転速度を変化させる（不要な通信を省くため）
;
#X obj 51 74 spigot;
#X obj 92 52 tgl 15 0 empty empty empty 17 7 0 10 -262144 -1 -1 1 1
;
#X obj 92 31 loadbang;
#X text 114 51 モーターとの接続;
#N canvas 581 232 128 231 interval 0;
#X obj 31 72 timer;
#X obj 31 122 f;
#X obj 31 144 -;
#X obj 31 95 t f b f;
#X obj 58 50 bng 15 250 50 0 empty empty empty 17 7 0 10 -262144 -1
-1;
#X obj 31 166 abs;
#X obj 58 26 inlet;
#X obj 31 190 outlet;
#X connect 0 0 3 0;
#X connect 1 0 2 0;
#X connect 2 0 5 0;
#X connect 3 0 1 1;
#X connect 3 1 1 0;
#X connect 3 2 2 1;
#X connect 4 0 0 1;
#X connect 5 0 7 0;
#X connect 6 0 4 0;
#X restore 162 328 pd interval;
#X text 219 655 0 < v < 127;
#X connect 0 0 7 0;
#X connect 1 0 51 0;
#X connect 6 0 0 0;
#X connect 7 0 8 0;
#X connect 8 0 10 0;
#X connect 9 0 39 0;
#X connect 10 0 9 0;
#X connect 11 0 12 0;
#X connect 11 1 13 0;
#X connect 12 0 22 0;
#X connect 12 0 15 0;
#X connect 13 0 17 0;
#X connect 13 0 22 0;
#X connect 14 0 16 0;
#X connect 14 0 18 0;
#X connect 14 0 41 0;
#X connect 15 0 16 0;
#X connect 15 0 41 0;
#X connect 16 0 2 0;
#X connect 17 0 18 0;
#X connect 17 0 41 0;
#X connect 18 0 3 0;
#X connect 21 0 37 0;
#X connect 22 0 23 0;
#X connect 23 0 14 0;
#X connect 24 0 34 0;
#X connect 26 0 22 1;
#X connect 27 0 37 1;
#X connect 28 0 29 0;
#X connect 29 0 30 0;
#X connect 30 0 31 0;
#X connect 31 0 24 0;
#X connect 34 0 38 0;
#X connect 37 0 26 0;
#X connect 38 0 27 0;
#X connect 39 0 11 0;
#X connect 39 1 55 0;
#X connect 41 0 42 1;
#X connect 42 0 47 0;
#X connect 43 0 45 0;
#X connect 44 0 46 0;
#X connect 45 0 44 0;
#X connect 46 0 42 0;
#X connect 47 0 40 0;
#X connect 51 0 6 0;
#X connect 52 0 51 1;
#X connect 53 0 52 0;
#X connect 55 0 21 0;
#X coords 0 -1 1 1 60 20 1 50 50;
