#N canvas 62 37 1231 517 10;
#X declare -lib mrpeach;
#X declare -lib flatgui;
#X declare -lib mrpeach;
#X declare -lib mrpeach;
#X declare -lib mrpeach;
#X declare -lib mrpeach;
#X declare -lib mrpeach;
#X declare -lib mrpeach;
#X obj 15 -178 import mrpeach;
#X obj 14 -132 udpreceive 7703;
#X text 14 -151 OSC receive from Processing;
#X obj 14 -106 s Xively;
#N canvas 491 173 440 254 UI 0;
#X obj 105 124 tgl 30 0 empty empty empty 17 7 0 10 -262144 -1 -1 1
1;
#X obj 105 24 import flatgui;
#X obj 193 119 knob 32 32 0 127 0 0 empty empty 結合強度(K) 0 -8
1 10 -262144 -1 -1 57 1;
#X obj 193 170 / 127;
#N canvas 0 22 450 278 (subpatch) 0;
#X array obj_phase 8 float 2;
#X coords 0 278 1 277 100 70 0;
#X restore 218 24 graph;
#X msg 105 191 1;
#X obj 105 213 s clock;
#X obj 193 213 s K;
#X obj 193 75 r con;
#X obj 105 170 metro 10;
#X floatatom 145 137 5 0 0 2 Δt(ms) - -;
#X obj 145 52 loadbang;
#X obj 161 170 s dt;
#N canvas 756 203 245 291 LFO 0;
#X obj 25 32 loadbang;
#X obj 25 55 tgl 15 0 empty empty empty 17 7 0 10 -262144 -1 -1 1 1
;
#X obj 25 129 +;
#X floatatom 69 230 5 0 0 0 - - -;
#X obj 69 203 expr if($f1>$f2 \, 0 \, $f1);
#X obj 96 153 pi;
#X obj 96 177 * 2;
#X obj 69 129 t f b;
#X obj 89 32 inlet;
#X floatatom 89 56 5 0 0 0 - - -;
#X obj 25 259 outlet;
#X obj 25 180 vsl 8 64 -1 1 0 0 empty empty empty 0 -9 0 10 -262144
-1 -1 5457 1;
#X obj 25 153 sin;
#X obj 25 82 metro 200;
#X msg 25 104 0.01;
#X connect 0 0 1 0;
#X connect 1 0 13 0;
#X connect 2 0 7 0;
#X connect 2 0 12 0;
#X connect 3 0 2 1;
#X connect 4 0 3 0;
#X connect 5 0 6 0;
#X connect 6 0 4 1;
#X connect 7 0 4 0;
#X connect 7 1 5 0;
#X connect 8 0 9 0;
#X connect 9 0 13 1;
#X connect 11 0 10 0;
#X connect 12 0 11 0;
#X connect 13 0 14 0;
#X connect 14 0 2 0;
#X restore 285 29 pd LFO;
#X obj 285 54 expr ($f1+1)/2;
#X floatatom 285 2 5 0 0 0 - - -;
#X obj 285 128 vsl 8 64 -40 160 0 0 empty empty empty 0 -9 0 10 -262144
-1 -1 1334 1;
#X obj 285 78 expr 1-$f1;
#X obj 237 169 s Kv;
#X obj 285 199 clip 0 127;
#X floatatom 300 129 5 0 0 0 - - -;
#X obj 285 102 expr $f1*167-20;
#X msg 145 75 100;
#X obj 193 191 * 0.3;
#X connect 0 0 9 0;
#X connect 2 0 3 0;
#X connect 2 0 18 0;
#X connect 3 0 23 0;
#X connect 5 0 6 0;
#X connect 8 0 2 0;
#X connect 9 0 5 0;
#X connect 10 0 9 1;
#X connect 10 0 12 0;
#X connect 11 0 22 0;
#X connect 11 0 0 0;
#X connect 13 0 14 0;
#X connect 14 0 17 0;
#X connect 15 0 13 0;
#X connect 16 0 19 0;
#X connect 17 0 21 0;
#X connect 19 0 2 0;
#X connect 21 0 16 0;
#X connect 21 0 20 0;
#X connect 22 0 10 0;
#X connect 23 0 7 0;
#X coords 0 -1 1 1 150 60 1 100 100;
#X restore 14 -68 pd UI;
#X obj 326 104 sin;
#X obj 326 128 vsl 8 64 -1 1 0 0 empty empty empty 0 -9 0 10 -262144
-1 -1 3037 1;
#X floatatom 326 46 10 0 0 0 - - -;
#X text 237 45 位相(rad);
#X text 237 -35 角速度(rad/s);
#X floatatom 326 -35 5 0 0 0 - - -;
#X text 238 -9 蔵本モデルによる;
#X text 237 9 引き込み処理;
#X text 334 9 arg1: オブジェクトのID;
#X text 334 25 arg2: オブジェクト数;
#X text 13 -200 import osc library;
#X text 333 200 モーターのコントロール;
#X text 414 277 回転速度;
#X text 323 277 正転;
#X text 370 277 逆転;
#X text 335 -57 生体電位を角速度に変換;
#X obj 481 104 sin;
#X obj 481 128 vsl 8 64 -1 1 0 0 empty empty empty 0 -9 0 10 -262144
-1 -1 2614 1;
#X floatatom 481 47 10 0 0 0 - - -;
#X floatatom 481 -34 5 0 0 0 - - -;
#X text 489 10 arg1: オブジェクトのID;
#X text 489 26 arg2: オブジェクト数;
#X text 488 201 モーターのコントロール;
#X text 569 278 回転速度;
#X text 478 278 正転;
#X text 525 278 逆転;
#X obj 326 -145 readosc2 0;
#X obj 481 -145 readosc2 1;
#X text 216 -93 引数大：揺れの間隔小;
#X text 216 -76 引数小：揺れの間隔大;
#X text 204 -112 tuningオブジェクト;
#X obj 326 -172 cnv 15 70 20 empty empty 1 3 11 0 14 -233017 -66577
0;
#X obj 480 -172 cnv 15 70 20 empty empty 2 3 11 0 14 -233017 -66577
0;
#N canvas 91 22 778 678 sendOSC 0;
#X obj 17 188 sendOSC;
#X msg 17 111 connect localhost 8000;
#X msg 32 137 disconnect;
#X obj 17 62 tgl 15 0 empty empty empty 17 7 0 10 -262144 -1 -1 1 1
;
#X obj 17 84 sel 1;
#X text 15 16 connect;
#X obj 42 163 r sOSC;
#X obj 17 36 loadbang;
#X obj 231 22 cnv 15 500 200 empty empty empty 20 12 0 14 -233017 -66577
0;
#X obj 338 187 s sOSC;
#X msg 297 87 send /arduino 0 6 \$1;
#X msg 338 114 send /arduino 0 7 \$1;
#X msg 382 142 send /arduino 0 8 \$1;
#X obj 540 187 s sOSC;
#X msg 499 87 send /arduino 0 11 \$1;
#X msg 540 114 send /arduino 0 12 \$1;
#X msg 584 142 send /arduino 0 13 \$1;
#X text 387 33 回転速度;
#X text 296 33 正転;
#X text 343 33 逆転;
#X text 589 32 回転速度;
#X text 498 32 正転;
#X text 545 32 逆転;
#X obj 297 52 r v007;
#X obj 342 52 r v008;
#X obj 388 52 r v006;
#X obj 499 51 r v012;
#X obj 544 51 r v013;
#X obj 590 51 r v011;
#X obj 232 231 cnv 15 500 200 empty empty empty 20 12 0 14 -233017
-66577 0;
#X obj 232 446 cnv 15 500 200 empty empty empty 20 12 0 14 -233017
-66577 0;
#X obj 339 403 s sOSC;
#X obj 541 403 s sOSC;
#X msg 298 303 send /arduino 1 6 \$1;
#X msg 339 330 send /arduino 1 7 \$1;
#X msg 383 358 send /arduino 1 8 \$1;
#X msg 500 303 send /arduino 1 11 \$1;
#X msg 541 330 send /arduino 1 12 \$1;
#X msg 585 358 send /arduino 1 13 \$1;
#X obj 339 613 s sOSC;
#X obj 541 613 s sOSC;
#X msg 298 513 send /arduino 2 6 \$1;
#X msg 339 540 send /arduino 2 7 \$1;
#X msg 383 568 send /arduino 2 8 \$1;
#X msg 500 513 send /arduino 2 11 \$1;
#X msg 541 540 send /arduino 2 12 \$1;
#X msg 585 568 send /arduino 2 13 \$1;
#X text 388 251 回転速度;
#X text 297 251 正転;
#X text 344 251 逆転;
#X text 589 252 回転速度;
#X text 498 252 正転;
#X text 545 252 逆転;
#X text 388 461 回転速度;
#X text 297 461 正転;
#X text 344 461 逆転;
#X text 590 462 回転速度;
#X text 499 462 正転;
#X text 546 462 逆転;
#X obj 298 270 r v107;
#X obj 343 270 r v108;
#X obj 389 270 r v106;
#X obj 499 271 r v112;
#X obj 544 271 r v113;
#X obj 590 271 r v111;
#X obj 298 480 r v207;
#X obj 343 480 r v208;
#X obj 389 480 r v206;
#X obj 500 481 r v212;
#X obj 545 481 r v213;
#X obj 591 481 r v211;
#X text 237 232 arduino 1;
#X text 235 23 arduino 0;
#X text 236 449 arduino 2;
#X connect 1 0 0 0;
#X connect 2 0 0 0;
#X connect 3 0 4 0;
#X connect 4 0 1 0;
#X connect 4 1 2 0;
#X connect 6 0 0 0;
#X connect 7 0 3 0;
#X connect 10 0 9 0;
#X connect 11 0 9 0;
#X connect 12 0 9 0;
#X connect 14 0 13 0;
#X connect 15 0 13 0;
#X connect 16 0 13 0;
#X connect 23 0 11 0;
#X connect 24 0 12 0;
#X connect 25 0 10 0;
#X connect 26 0 15 0;
#X connect 27 0 16 0;
#X connect 28 0 14 0;
#X connect 33 0 31 0;
#X connect 34 0 31 0;
#X connect 35 0 31 0;
#X connect 36 0 32 0;
#X connect 37 0 32 0;
#X connect 38 0 32 0;
#X connect 41 0 39 0;
#X connect 42 0 39 0;
#X connect 43 0 39 0;
#X connect 44 0 40 0;
#X connect 45 0 40 0;
#X connect 46 0 40 0;
#X connect 59 0 34 0;
#X connect 60 0 35 0;
#X connect 61 0 33 0;
#X connect 62 0 37 0;
#X connect 63 0 38 0;
#X connect 64 0 36 0;
#X connect 65 0 42 0;
#X connect 66 0 43 0;
#X connect 67 0 41 0;
#X connect 68 0 45 0;
#X connect 69 0 46 0;
#X connect 70 0 44 0;
#X restore 12 66 pd sendOSC;
#X text 9 89 モーターへの命令をOSCで出力;
#X text 9 107 変換プログラムでOSC->シリアル通信に変換
;
#X obj 326 256 s v007;
#X obj 371 256 s v008;
#X obj 417 256 s v006;
#X obj 481 257 s v012;
#X obj 526 257 s v013;
#X obj 572 257 s v011;
#X obj 625 104 sin;
#X obj 625 128 vsl 8 64 -1 1 0 0 empty empty empty 0 -9 0 10 -262144
-1 -1 3960 1;
#X floatatom 625 47 10 0 0 0 - - -;
#X floatatom 625 -34 5 0 0 0 - - -;
#X text 633 10 arg1: オブジェクトのID;
#X text 633 26 arg2: オブジェクト数;
#X text 632 201 モーターのコントロール;
#X text 713 278 回転速度;
#X text 622 278 正転;
#X text 669 278 逆転;
#X obj 624 -172 cnv 15 70 20 empty empty 3 3 11 0 14 -233017 -66577
0;
#X obj 625 -145 readosc2 2;
#X obj 625 257 s v107;
#X obj 670 257 s v108;
#X obj 716 257 s v106;
#X obj 770 104 sin;
#X obj 770 128 vsl 8 64 -1 1 0 0 empty empty empty 0 -9 0 10 -262144
-1 -1 6289 1;
#X floatatom 770 47 10 0 0 0 - - -;
#X floatatom 770 -34 5 0 0 0 - - -;
#X text 778 10 arg1: オブジェクトのID;
#X text 778 26 arg2: オブジェクト数;
#X text 777 201 モーターのコントロール;
#X text 858 278 回転速度;
#X text 767 278 正転;
#X text 814 278 逆転;
#X obj 769 -172 cnv 15 70 20 empty empty 4 3 11 0 14 -233017 -66577
0;
#X obj 770 -145 readosc2 3;
#X obj 625 -7 kuramoto 2 6;
#X obj 481 -7 kuramoto 1 6;
#X obj 326 -8 kuramoto 0 6;
#X obj 770 -7 kuramoto 3 6;
#X obj 770 257 s v112;
#X obj 815 257 s v113;
#X obj 861 257 s v111;
#X obj 919 105 sin;
#X obj 919 129 vsl 8 64 -1 1 0 0 empty empty empty 0 -9 0 10 -262144
-1 -1 4018 1;
#X floatatom 919 48 10 0 0 0 - - -;
#X floatatom 919 -33 5 0 0 0 - - -;
#X text 927 11 arg1: オブジェクトのID;
#X text 927 27 arg2: オブジェクト数;
#X text 926 202 モーターのコントロール;
#X text 1007 279 回転速度;
#X text 916 279 正転;
#X text 963 279 逆転;
#X obj 918 -171 cnv 15 70 20 empty empty 5 3 11 0 14 -233017 -66577
0;
#X obj 1064 105 sin;
#X obj 1064 129 vsl 8 64 -1 1 0 0 empty empty empty 0 -9 0 10 -262144
-1 -1 1011 1;
#X floatatom 1064 48 10 0 0 0 - - -;
#X floatatom 1064 -33 5 0 0 0 - - -;
#X text 1072 11 arg1: オブジェクトのID;
#X text 1072 27 arg2: オブジェクト数;
#X text 1071 202 モーターのコントロール;
#X text 1152 279 回転速度;
#X text 1061 279 正転;
#X text 1108 279 逆転;
#X obj 1063 -171 cnv 15 70 20 empty empty 6 3 11 0 14 -233017 -66577
0;
#X obj 919 -144 readosc2 4;
#X obj 1064 -144 readosc2 5;
#X obj 919 258 s v207;
#X obj 964 258 s v208;
#X obj 1010 258 s v206;
#X obj 1064 258 s v212;
#X obj 1109 258 s v213;
#X obj 1155 258 s v211;
#X obj 919 -6 kuramoto 4 6;
#X obj 1064 -6 kuramoto 5 6;
#X obj 481 -93 tuning 15;
#X obj 625 -93 tuning 5;
#X obj 770 -93 tuning 20;
#X obj 919 -92 tuning 20;
#X obj 1064 -92 tuning 250;
#X obj 534 128 vsl 8 64 0.5 1 0 0 empty empty empty 0 -9 0 10 -262144
-1 -1 963 1;
#X obj 534 104 abs;
#X obj 507 104 sin;
#N canvas 427 362 257 180 phase_shift 0;
#X obj 30 28 inlet;
#X obj 30 117 +;
#X obj 57 75 pi;
#X obj 30 53 t f b;
#X obj 30 141 outlet;
#X text 96 28 pi/4 位相をシフトする;
#X obj 57 96 / 4;
#X connect 0 0 3 0;
#X connect 1 0 4 0;
#X connect 2 0 6 0;
#X connect 3 0 1 0;
#X connect 3 1 2 0;
#X connect 6 0 1 1;
#X restore 507 82 pd phase_shift;
#X text 508 64 pi/4 位相をシフト;
#X obj 379 128 vsl 8 64 0.5 1 0 0 empty empty empty 0 -9 0 10 -262144
-1 -1 2284 1;
#X obj 379 104 abs;
#X obj 352 104 sin;
#N canvas 427 362 257 180 phase_shift 0;
#X obj 30 28 inlet;
#X obj 30 117 +;
#X obj 57 75 pi;
#X obj 30 53 t f b;
#X obj 30 141 outlet;
#X text 96 28 pi/4 位相をシフトする;
#X obj 57 96 / 4;
#X connect 0 0 3 0;
#X connect 1 0 4 0;
#X connect 2 0 6 0;
#X connect 3 0 1 0;
#X connect 3 1 2 0;
#X connect 6 0 1 1;
#X restore 352 82 pd phase_shift;
#X text 353 64 pi/4 位相をシフト;
#X obj 326 -94 tuning 10;
#X obj 326 220 motor;
#X obj 481 220 motor;
#X obj 625 220 motor;
#X obj 770 220 motor;
#X obj 919 221 motor;
#X obj 1064 221 motor;
#X obj 678 128 vsl 8 64 0.5 1 0 0 empty empty empty 0 -9 0 10 -262144
-1 -1 18 1;
#X obj 678 104 abs;
#X obj 651 104 sin;
#N canvas 427 362 257 180 phase_shift 0;
#X obj 30 28 inlet;
#X obj 30 117 +;
#X obj 57 75 pi;
#X obj 30 53 t f b;
#X obj 30 141 outlet;
#X text 96 28 pi/4 位相をシフトする;
#X obj 57 96 / 4;
#X connect 0 0 3 0;
#X connect 1 0 4 0;
#X connect 2 0 6 0;
#X connect 3 0 1 0;
#X connect 3 1 2 0;
#X connect 6 0 1 1;
#X restore 651 82 pd phase_shift;
#X text 652 64 pi/4 位相をシフト;
#X obj 823 128 vsl 8 64 0.5 1 0 0 empty empty empty 0 -9 0 10 -262144
-1 -1 3333 1;
#X obj 823 104 abs;
#X obj 796 104 sin;
#N canvas 427 362 257 180 phase_shift 0;
#X obj 30 28 inlet;
#X obj 30 117 +;
#X obj 57 75 pi;
#X obj 30 53 t f b;
#X obj 30 141 outlet;
#X text 96 28 pi/4 位相をシフトする;
#X obj 57 96 / 4;
#X connect 0 0 3 0;
#X connect 1 0 4 0;
#X connect 2 0 6 0;
#X connect 3 0 1 0;
#X connect 3 1 2 0;
#X connect 6 0 1 1;
#X restore 796 82 pd phase_shift;
#X text 797 64 pi/4 位相をシフト;
#X obj 972 129 vsl 8 64 0.5 1 0 0 empty empty empty 0 -9 0 10 -262144
-1 -1 0 1;
#X obj 972 105 abs;
#X obj 945 105 sin;
#N canvas 427 362 257 180 phase_shift 0;
#X obj 30 28 inlet;
#X obj 30 117 +;
#X obj 57 75 pi;
#X obj 30 53 t f b;
#X obj 30 141 outlet;
#X text 96 28 pi/4 位相をシフトする;
#X obj 57 96 / 4;
#X connect 0 0 3 0;
#X connect 1 0 4 0;
#X connect 2 0 6 0;
#X connect 3 0 1 0;
#X connect 3 1 2 0;
#X connect 6 0 1 1;
#X restore 945 83 pd phase_shift;
#X text 946 65 pi/4 位相をシフト;
#X obj 1117 128 vsl 8 64 0.5 1 0 0 empty empty empty 0 -9 0 10 -262144
-1 -1 0 1;
#X obj 1117 104 abs;
#X obj 1090 104 sin;
#N canvas 427 362 257 180 phase_shift 0;
#X obj 30 28 inlet;
#X obj 30 117 +;
#X obj 57 75 pi;
#X obj 30 53 t f b;
#X obj 30 141 outlet;
#X text 96 28 pi/4 位相をシフトする;
#X obj 57 96 / 4;
#X connect 0 0 3 0;
#X connect 1 0 4 0;
#X connect 2 0 6 0;
#X connect 3 0 1 0;
#X connect 3 1 2 0;
#X connect 6 0 1 1;
#X restore 1090 82 pd phase_shift;
#X text 1091 64 pi/4 位相をシフト;
#X connect 1 0 3 0;
#X connect 5 0 6 0;
#X connect 6 0 129 0;
#X connect 7 0 5 0;
#X connect 7 0 126 0;
#X connect 10 0 76 0;
#X connect 21 0 22 0;
#X connect 22 0 130 0;
#X connect 23 0 21 0;
#X connect 23 0 121 0;
#X connect 24 0 75 0;
#X connect 31 0 128 0;
#X connect 32 0 113 0;
#X connect 47 0 48 0;
#X connect 48 0 131 0;
#X connect 49 0 47 0;
#X connect 49 0 138 0;
#X connect 50 0 74 0;
#X connect 58 0 114 0;
#X connect 62 0 63 0;
#X connect 63 0 132 0;
#X connect 64 0 62 0;
#X connect 64 0 143 0;
#X connect 65 0 77 0;
#X connect 73 0 115 0;
#X connect 74 0 49 0;
#X connect 75 0 23 0;
#X connect 76 0 7 0;
#X connect 77 0 64 0;
#X connect 81 0 82 0;
#X connect 82 0 133 0;
#X connect 83 0 81 0;
#X connect 83 0 148 0;
#X connect 84 0 111 0;
#X connect 92 0 93 0;
#X connect 93 0 134 0;
#X connect 94 0 92 0;
#X connect 94 0 153 0;
#X connect 95 0 112 0;
#X connect 103 0 116 0;
#X connect 104 0 117 0;
#X connect 111 0 83 0;
#X connect 112 0 94 0;
#X connect 113 0 24 0;
#X connect 114 0 50 0;
#X connect 115 0 65 0;
#X connect 116 0 84 0;
#X connect 117 0 95 0;
#X connect 118 0 130 1;
#X connect 119 0 118 0;
#X connect 120 0 119 0;
#X connect 121 0 120 0;
#X connect 123 0 129 1;
#X connect 124 0 123 0;
#X connect 125 0 124 0;
#X connect 126 0 125 0;
#X connect 128 0 10 0;
#X connect 129 0 41 0;
#X connect 129 1 42 0;
#X connect 129 2 43 0;
#X connect 130 0 45 0;
#X connect 130 1 44 0;
#X connect 130 2 46 0;
#X connect 131 0 59 0;
#X connect 131 1 60 0;
#X connect 131 2 61 0;
#X connect 132 0 78 0;
#X connect 132 1 79 0;
#X connect 132 2 80 0;
#X connect 133 0 105 0;
#X connect 133 1 106 0;
#X connect 133 2 107 0;
#X connect 134 0 108 0;
#X connect 134 1 109 0;
#X connect 134 2 110 0;
#X connect 135 0 131 1;
#X connect 136 0 135 0;
#X connect 137 0 136 0;
#X connect 138 0 137 0;
#X connect 140 0 132 1;
#X connect 141 0 140 0;
#X connect 142 0 141 0;
#X connect 143 0 142 0;
#X connect 145 0 133 1;
#X connect 146 0 145 0;
#X connect 147 0 146 0;
#X connect 148 0 147 0;
#X connect 150 0 134 1;
#X connect 151 0 150 0;
#X connect 152 0 151 0;
#X connect 153 0 152 0;
#X coords 0 517 1 516 85 20 0;
