#N canvas 56 22 1229 514 10;
#X floatatom 104 167 15 0 0 0 - - -;
#X obj 104 27 deck;
#X obj 144 478 noteout;
#X obj 240 221 loadbang;
#X obj 144 429 makenote;
#X floatatom 159 329 0 0 0 0 - - -;
#X obj 144 403 f;
#X floatatom 203 329 0 0 0 0 - - -;
#X floatatom 246 329 0 0 0 0 - - -;
#X msg 240 259 60;
#X msg 272 258 64;
#X text 157 308 pitch;
#X text 202 308 vel;
#X text 238 309 length;
#X obj 86 335 tgl 15 0 empty empty empty 17 7 0 10 -262144 -1 -1 1
1;
#X obj 179 224 * 500;
#X obj 179 248 i;
#X obj 179 274 + 70;
#X obj 86 358 metro 300;
#X floatatom 96 276 5 0 0 0 - - -;
#X obj 96 232 bng 15 250 50 0 empty empty empty 17 7 0 10 -262144 -1
-1;
#X obj 309 297 bng 15 250 50 0 empty empty empty 17 7 0 10 -262144
-1 -1;
#X obj 309 343 * 0.1;
#X obj 294 387 * 1;
#X floatatom 309 365 5 0 0 0 - - -;
#X msg 304 256 3000;
#X msg 207 451 1;
#X floatatom 405 164 15 0 0 0 - - -;
#X obj 405 24 deck;
#X obj 445 475 noteout;
#X obj 541 218 loadbang;
#X obj 445 426 makenote;
#X floatatom 460 326 0 0 0 0 - - -;
#X obj 445 400 f;
#X floatatom 504 326 0 0 0 0 - - -;
#X floatatom 547 326 0 0 0 0 - - -;
#X msg 541 256 60;
#X msg 573 255 64;
#X text 458 305 pitch;
#X text 503 305 vel;
#X text 539 306 length;
#X obj 387 332 tgl 15 0 empty empty empty 17 7 0 10 -262144 -1 -1 1
1;
#X obj 480 221 * 500;
#X obj 480 245 i;
#X obj 480 271 + 70;
#X obj 387 355 metro 300;
#X obj 397 250 random 300;
#X floatatom 397 273 5 0 0 0 - - -;
#X obj 397 229 bng 15 250 50 0 empty empty empty 17 7 0 10 -262144
-1 -1;
#X obj 610 294 bng 15 250 50 0 empty empty empty 17 7 0 10 -262144
-1 -1;
#X obj 610 340 * 0.1;
#X obj 595 384 * 1;
#X floatatom 610 362 5 0 0 0 - - -;
#X msg 605 253 3000;
#X msg 508 448 2;
#X obj 96 253 random 500;
#X obj 96 301 + 700;
#X obj 397 298 + 800;
#X obj 798 242 vsl 8 64 0 1 0 0 empty empty empty 0 -9 0 10 -262144
-1 -1 0 1;
#X floatatom 843 354 5 0 0 0 - - -;
#X obj 798 324 t b f;
#X msg 798 418 send /live/volume \$1 \$2;
#X text 806 396 track0のvolumeをコントロール;
#X text 812 297 - 0;
#X text 813 233 - 1;
#X obj 798 444 s toLive;
#X obj 798 377 pack 15 f;
#X obj 964 241 vsl 8 64 0 1 0 0 empty empty empty 0 -9 0 10 -262144
-1 -1 0 1;
#X floatatom 1009 353 5 0 0 0 - - -;
#X obj 964 323 t b f;
#X msg 964 417 send /live/volume \$1 \$2;
#X text 972 395 track0のvolumeをコントロール;
#X text 978 296 - 0;
#X text 979 232 - 1;
#X obj 964 443 s toLive;
#X obj 964 376 pack 16 f;
#X obj 761 47 r scene;
#X floatatom 761 69 5 0 0 0 - - -;
#X obj 798 203 line;
#X obj 761 116 sel 1;
#X obj 761 139 bng 15 250 50 0 empty empty empty 17 7 0 10 -262144
-1 -1;
#X obj 788 139 bng 15 250 50 0 empty empty empty 17 7 0 10 -262144
-1 -1;
#X obj 761 92 expr if($f1>=12 && $f1 <= 15 \, 1 \, 0);
#X msg 761 173 0.7 4000;
#X msg 838 173 0 4000;
#X obj 309 318 random 9;
#X obj 610 315 random 7;
#X obj 1029 123 sel 0;
#X floatatom 1029 171 5 0 0 0 - - -;
#X obj 1020 249 s toLive;
#X msg 1020 204 send /live/device 15 0 1 \$1;
#X obj 1029 148 random 9;
#X obj 999 133 bng 15 250 50 0 empty empty empty 17 7 0 10 -262144
-1 -1;
#X msg 1039 227 send /live/device 16 0 1 \$1;
#X connect 0 0 15 0;
#X connect 1 0 0 0;
#X connect 3 0 9 0;
#X connect 3 0 10 0;
#X connect 3 0 25 0;
#X connect 3 0 26 0;
#X connect 3 0 14 0;
#X connect 4 0 2 0;
#X connect 4 1 2 1;
#X connect 5 0 6 1;
#X connect 5 0 20 0;
#X connect 6 0 4 0;
#X connect 7 0 23 0;
#X connect 8 0 4 2;
#X connect 9 0 5 0;
#X connect 10 0 7 0;
#X connect 14 0 18 0;
#X connect 15 0 16 0;
#X connect 16 0 17 0;
#X connect 17 0 5 0;
#X connect 17 0 7 0;
#X connect 17 0 21 0;
#X connect 18 0 6 0;
#X connect 19 0 56 0;
#X connect 20 0 55 0;
#X connect 21 0 85 0;
#X connect 22 0 24 0;
#X connect 23 0 4 1;
#X connect 24 0 23 1;
#X connect 25 0 8 0;
#X connect 26 0 2 2;
#X connect 27 0 42 0;
#X connect 28 0 27 0;
#X connect 30 0 36 0;
#X connect 30 0 37 0;
#X connect 30 0 53 0;
#X connect 30 0 54 0;
#X connect 30 0 41 0;
#X connect 31 0 29 0;
#X connect 31 1 29 1;
#X connect 32 0 33 1;
#X connect 32 0 48 0;
#X connect 33 0 31 0;
#X connect 34 0 51 0;
#X connect 35 0 31 2;
#X connect 36 0 32 0;
#X connect 37 0 34 0;
#X connect 41 0 45 0;
#X connect 42 0 43 0;
#X connect 43 0 44 0;
#X connect 44 0 32 0;
#X connect 44 0 34 0;
#X connect 44 0 49 0;
#X connect 45 0 33 0;
#X connect 46 0 47 0;
#X connect 47 0 57 0;
#X connect 48 0 46 0;
#X connect 49 0 86 0;
#X connect 50 0 52 0;
#X connect 51 0 31 1;
#X connect 52 0 51 1;
#X connect 53 0 35 0;
#X connect 54 0 29 2;
#X connect 55 0 19 0;
#X connect 56 0 18 1;
#X connect 57 0 45 1;
#X connect 58 0 60 0;
#X connect 59 0 66 1;
#X connect 60 0 66 0;
#X connect 60 1 59 0;
#X connect 61 0 65 0;
#X connect 66 0 61 0;
#X connect 67 0 69 0;
#X connect 68 0 75 1;
#X connect 69 0 75 0;
#X connect 69 1 68 0;
#X connect 70 0 74 0;
#X connect 75 0 70 0;
#X connect 76 0 77 0;
#X connect 77 0 82 0;
#X connect 78 0 58 0;
#X connect 78 0 67 0;
#X connect 79 0 80 0;
#X connect 79 1 81 0;
#X connect 80 0 83 0;
#X connect 81 0 84 0;
#X connect 82 0 79 0;
#X connect 82 0 87 0;
#X connect 83 0 78 0;
#X connect 84 0 78 0;
#X connect 85 0 22 0;
#X connect 86 0 50 0;
#X connect 87 0 91 0;
#X connect 88 0 90 0;
#X connect 88 0 93 0;
#X connect 90 0 89 0;
#X connect 91 0 88 0;
#X connect 92 0 91 0;
#X connect 93 0 89 0;
