#N canvas 359 114 349 491 10;
#X obj 10 40 inlet;
#X text 9 16 data;
#X obj 4 274 vsl 8 64 0 1 0 0 empty empty empty 0 -9 0 10 -262144 -1
-1 0 1;
#X obj 4 359 * 127;
#X obj 4 380 i;
#X floatatom 4 402 5 0 0 0 - - -;
#X obj 4 428 outlet;
#X text 26 330 - 0;
#X text 26 266 - 127;
#X obj 17 274 vsl 8 64 0 1 0 0 empty empty empty 0 -9 0 10 -262144
-1 -1 0 1;
#X floatatom 10 113 5 0 0 0 - - -;
#X floatatom 79 113 5 0 0 0 - - -;
#X obj 10 173 f;
#X obj 10 136 t b f;
#X obj 75 173 == 0;
#X obj 37 197 &&;
#X obj 4 221 spigot;
#X text 43 154 track;
#X text 81 154 LR;
#X obj 10 82 unpack 0 0 0;
#X floatatom 123 114 5 0 0 0 - - -;
#X floatatom 192 114 5 0 0 0 - - -;
#X obj 123 174 f;
#X obj 123 137 t b f;
#X obj 150 198 &&;
#X obj 117 222 spigot;
#X text 156 155 track;
#X text 194 155 LR;
#X obj 123 83 unpack 0 0 0;
#X obj 188 174 == 1;
#X obj 51 358 * 127;
#X obj 51 379 i;
#X floatatom 51 401 5 0 0 0 - - -;
#X obj 51 427 outlet;
#X obj 37 173 == \$1;
#X obj 150 174 == \$1;
#X connect 0 0 19 0;
#X connect 0 0 28 0;
#X connect 2 0 3 0;
#X connect 3 0 4 0;
#X connect 4 0 5 0;
#X connect 5 0 6 0;
#X connect 9 0 30 0;
#X connect 10 0 13 0;
#X connect 11 0 12 1;
#X connect 12 0 16 0;
#X connect 13 0 12 0;
#X connect 13 1 34 0;
#X connect 14 0 15 1;
#X connect 15 0 16 1;
#X connect 16 0 2 0;
#X connect 19 0 10 0;
#X connect 19 1 14 0;
#X connect 19 2 11 0;
#X connect 20 0 23 0;
#X connect 21 0 22 1;
#X connect 22 0 25 0;
#X connect 23 0 22 0;
#X connect 23 1 35 0;
#X connect 24 0 25 1;
#X connect 25 0 9 0;
#X connect 28 0 20 0;
#X connect 28 1 29 0;
#X connect 28 2 21 0;
#X connect 29 0 24 1;
#X connect 30 0 31 0;
#X connect 31 0 32 0;
#X connect 32 0 33 0;
#X connect 34 0 15 0;
#X connect 35 0 24 0;
#X coords 0 -1 1 1 60 95 1 0 250;
