#N canvas 525 166 222 334 10;
#X obj 6 194 vsl 8 64 -1 1 0 0 empty empty empty 0 -9 0 10 -262144
-1 -1 5894 1;
#X obj 6 80 tgl 15 0 empty empty empty 17 7 0 10 -262144 -1 -1 1 1
;
#X floatatom 47 150 5 0 0 0 - - -;
#X obj 6 149 + 1;
#X obj 6 13 loadbang;
#X obj 6 170 sin;
#X floatatom 6 270 5 0 0 0 - - -;
#X obj 47 128 expr if($f1>=360 \, 0 \, $f1);
#X obj 6 296 outlet;
#X msg 6 128 0.1;
#X obj 6 103 metro 100;
#X floatatom 31 79 5 0 0 0 - - -;
#X obj 30 39 \$1;
#X connect 0 0 6 0;
#X connect 1 0 10 0;
#X connect 2 0 3 1;
#X connect 3 0 5 0;
#X connect 3 0 7 0;
#X connect 4 0 12 0;
#X connect 4 0 1 0;
#X connect 5 0 0 0;
#X connect 6 0 8 0;
#X connect 6 0 11 0;
#X connect 7 0 2 0;
#X connect 9 0 3 0;
#X connect 10 0 9 0;
#X connect 12 0 10 1;
#X coords 0 -1 1 1 70 40 1 0 60;
