#N canvas 152 70 835 366 10;
#X declare -lib mrpeach;
#X msg 47 150 disconnect;
#X obj 26 228 sendOSC;
#X obj 26 100 loadbang;
#X msg 26 125 connect localhost 9000;
#X obj 464 46 vsl 8 64 0 1 0 0 empty empty empty 0 -9 0 10 -262144
-1 -1 2800 1;
#X floatatom 509 158 5 0 0 0 - - -;
#X obj 464 128 t b f;
#X obj 26 24 import mrpeach;
#X text 25 2 ライブラリのインポート;
#X text 25 62 Ableton Liveへ接続;
#X text 25 80 LiveOSCはポート9000で受信;
#X obj 244 46 udpreceive 9001;
#X obj 244 72 unpackOSC;
#X obj 244 98 routeOSC /live/track/meter;
#X floatatom 244 278 5 0 0 0 - - -;
#X obj 203 125 print;
#X text 242 7 Ableton Liveから受信;
#X text 243 25 LiveOSCはポート9001から送信;
#X msg 307 153 0;
#X obj 244 125 t l b;
#N canvas 486 39 288 447 getParam 0;
#X obj 11 40 inlet;
#X obj 59 40 inlet;
#X text 10 16 data;
#X text 58 16 track;
#X obj 5 274 vsl 8 64 0 1 0 0 empty empty empty 0 -9 0 10 -262144 -1
-1 0 1;
#X obj 5 350 * 127;
#X obj 5 371 i;
#X floatatom 5 393 5 0 0 0 - - -;
#X obj 5 419 outlet;
#X text 27 330 - 0;
#X text 27 266 - 127;
#X obj 18 274 vsl 8 64 0 1 0 0 empty empty empty 0 -9 0 10 -262144
-1 -1 0 1;
#X floatatom 11 113 5 0 0 0 - - -;
#X floatatom 80 113 5 0 0 0 - - -;
#X obj 11 173 f;
#X obj 11 136 t b f;
#X obj 38 173 == 0;
#X obj 76 173 == 0;
#X obj 38 197 &&;
#X obj 5 221 spigot;
#X text 44 154 track;
#X text 82 154 LR;
#X obj 11 82 unpack 0 0 0;
#X floatatom 124 114 5 0 0 0 - - -;
#X floatatom 193 114 5 0 0 0 - - -;
#X obj 124 174 f;
#X obj 124 137 t b f;
#X obj 151 174 == 0;
#X obj 151 198 &&;
#X obj 118 222 spigot;
#X text 157 155 track;
#X text 195 155 LR;
#X obj 124 83 unpack 0 0 0;
#X obj 189 174 == 1;
#X obj 52 349 * 127;
#X obj 52 370 i;
#X floatatom 52 392 5 0 0 0 - - -;
#X obj 52 418 outlet;
#X connect 0 0 22 0;
#X connect 0 0 32 0;
#X connect 1 0 16 1;
#X connect 1 0 27 1;
#X connect 4 0 5 0;
#X connect 5 0 6 0;
#X connect 6 0 7 0;
#X connect 7 0 8 0;
#X connect 11 0 34 0;
#X connect 12 0 15 0;
#X connect 13 0 14 1;
#X connect 14 0 19 0;
#X connect 15 0 14 0;
#X connect 15 1 16 0;
#X connect 16 0 18 0;
#X connect 17 0 18 1;
#X connect 18 0 19 1;
#X connect 19 0 4 0;
#X connect 22 0 12 0;
#X connect 22 1 17 0;
#X connect 22 2 13 0;
#X connect 23 0 26 0;
#X connect 24 0 25 1;
#X connect 25 0 29 0;
#X connect 26 0 25 0;
#X connect 26 1 27 0;
#X connect 27 0 28 0;
#X connect 28 0 29 1;
#X connect 29 0 11 0;
#X connect 32 0 23 0;
#X connect 32 1 33 0;
#X connect 32 2 24 0;
#X connect 33 0 28 1;
#X connect 34 0 35 0;
#X connect 35 0 36 0;
#X connect 36 0 37 0;
#X coords 0 -1 1 1 60 95 1 0 250;
#X restore 244 177 pd getParam;
#X floatatom 307 278 5 0 0 0 - - -;
#X obj 464 181 pack 0 f;
#X msg 464 222 send /live/volume \$1 \$2;
#X obj 47 188 r sOSC;
#X obj 464 248 s sOSC;
#X text 472 200 track0のvolumeをコントロール;
#X text 478 101 - 0;
#X text 478 36 - 1;
#X text 462 6 Ableton Liveへ送信;
#X floatatom 682 157 5 0 0 0 - - -;
#X obj 637 127 t b f;
#X obj 637 180 pack 0 f;
#X obj 637 247 s sOSC;
#X text 651 199 track0のpanをコントロール;
#X msg 637 221 send /live/pan \$1 \$2;
#X obj 637 68 knob 32 32 -1 1 0 0 empty empty empty 0 -8 0 8 -262144
-1 -1 1600 1;
#X text 463 273 LiveからのOSCメッセージをモニターし;
#X text 462 291 同じprefixでメッセージを送れば該当するGUIを操作で
;
#X connect 0 0 1 0;
#X connect 2 0 3 0;
#X connect 3 0 1 0;
#X connect 4 0 6 0;
#X connect 5 0 22 1;
#X connect 6 0 22 0;
#X connect 6 1 5 0;
#X connect 11 0 12 0;
#X connect 12 0 13 0;
#X connect 12 0 15 0;
#X connect 13 0 19 0;
#X connect 18 0 20 1;
#X connect 19 0 20 0;
#X connect 19 1 18 0;
#X connect 20 0 14 0;
#X connect 20 1 21 0;
#X connect 22 0 23 0;
#X connect 23 0 25 0;
#X connect 24 0 1 0;
#X connect 30 0 32 1;
#X connect 31 0 32 0;
#X connect 31 1 30 0;
#X connect 32 0 35 0;
#X connect 35 0 33 0;
#X connect 36 0 31 0;
