#N canvas 459 103 406 429 10;
#X declare -lib mrpeach;
#X declare -lib mrpeach;
#X obj -7 14 import mrpeach;
#X obj -11 12 cnv 15 160 350 empty empty empty 20 12 0 14 -233017 -66577
0;
#X msg 20 102 disconnect;
#X obj -1 162 sendOSC;
#X msg -1 77 connect localhost 7702;
#X obj -1 52 loadbang;
#X msg 23 268 disconnect;
#X obj 2 328 sendOSC;
#X obj 2 218 loadbang;
#X obj 31 295 r toLive;
#X obj 28 129 r toProcessing;
#X text -2 192 To Ableton Live;
#X text -5 26 To Processing;
#X msg 2 243 connect localhost 9000;
#X obj -134 12 cnv 15 110 350 empty empty empty 20 12 0 14 -233017
-66577 0;
#X obj -125 274 MIDI-Live;
#X obj -126 24 import mrpeach;
#X obj -125 67 loadbang;
#X obj -125 90 tgl 15 0 empty empty empty 17 7 0 10 -262144 -1 -1 1
1;
#X msg -125 111 \; pd dsp \$1;
#X text -126 46 DSP ON;
#N canvas 319 246 1008 376 sendLFO 0;
#X text 327 308 From Ableton Live;
#X obj 34 41 cnv 15 920 280 empty empty empty 20 12 0 14 -233017 -66577
0;
#X obj 45 109 > 0;
#X obj 45 130 change;
#X obj 45 153 bng 15 250 50 0 empty empty empty 17 7 0 10 -262144 -1
-1;
#X obj 45 198 + 1;
#X msg 45 174 1;
#X floatatom 76 198 5 0 0 0 - - -;
#X floatatom 45 222 5 0 0 0 - - -;
#X obj 45 61 LFO 100;
#X obj 233 61 LFO 100;
#X msg 233 197 send /sin \$1;
#X obj 233 108 expr $f1/2 + 0.5;
#X obj 233 132 * 127;
#X obj 233 153 i;
#X floatatom 233 175 5 0 0 0 - - -;
#X obj 342 108 expr $f1/2 + 0.5;
#X obj 342 132 * 127;
#X obj 342 153 i;
#X floatatom 342 175 5 0 0 0 - - -;
#X obj 342 61 LFO 120;
#X msg 342 197 send /noi \$1;
#X obj 454 108 expr $f1/2 + 0.5;
#X obj 454 132 * 127;
#X obj 454 153 i;
#X floatatom 454 175 5 0 0 0 - - -;
#X obj 454 61 LFO 200;
#X msg 454 197 send /weight \$1;
#X obj 571 108 expr $f1/2 + 0.5;
#X obj 571 132 * 127;
#X obj 571 153 i;
#X floatatom 571 175 5 0 0 0 - - -;
#X obj 571 61 LFO 150;
#X msg 571 197 send /col \$1;
#X obj 45 267 s toProcessing;
#X obj 233 226 s toProcessing;
#X obj 342 226 s toProcessing;
#X obj 454 226 s toProcessing;
#X obj 571 226 s toProcessing;
#X msg 45 244 send /Pattern \$1;
#X obj 700 289 s toLive;
#X text 708 249 scene control;
#X obj 700 101 > 0;
#X obj 700 122 change;
#X obj 700 145 bng 15 250 50 0 empty empty empty 17 7 0 10 -262144
-1 -1;
#X obj 700 190 + 1;
#X msg 700 166 1;
#X floatatom 731 190 5 0 0 0 - - -;
#X floatatom 700 214 5 0 0 0 - - -;
#X msg 700 266 send /live/play/scene \$1;
#X obj 700 53 LFO 1000;
#X obj 76 174 expr if($f1>2 \, -1 \, $f1);
#X obj 859 289 s toProcessing;
#X msg 859 266 send /scene \$1;
#X obj 700 237 i;
#X obj 646 290 s scene;
#X obj 731 166 expr if($f1>21 \, -1 \, $f1);
#X connect 2 0 3 0;
#X connect 3 0 4 0;
#X connect 4 0 6 0;
#X connect 5 0 8 0;
#X connect 5 0 51 0;
#X connect 6 0 5 0;
#X connect 7 0 5 1;
#X connect 8 0 39 0;
#X connect 9 0 2 0;
#X connect 10 0 12 0;
#X connect 11 0 35 0;
#X connect 12 0 13 0;
#X connect 13 0 14 0;
#X connect 14 0 15 0;
#X connect 15 0 11 0;
#X connect 16 0 17 0;
#X connect 17 0 18 0;
#X connect 18 0 19 0;
#X connect 19 0 21 0;
#X connect 20 0 16 0;
#X connect 21 0 36 0;
#X connect 22 0 23 0;
#X connect 23 0 24 0;
#X connect 24 0 25 0;
#X connect 25 0 27 0;
#X connect 26 0 22 0;
#X connect 27 0 37 0;
#X connect 28 0 29 0;
#X connect 29 0 30 0;
#X connect 30 0 31 0;
#X connect 31 0 33 0;
#X connect 32 0 28 0;
#X connect 33 0 38 0;
#X connect 39 0 34 0;
#X connect 42 0 43 0;
#X connect 43 0 44 0;
#X connect 44 0 46 0;
#X connect 45 0 48 0;
#X connect 45 0 56 0;
#X connect 46 0 45 0;
#X connect 47 0 45 1;
#X connect 48 0 54 0;
#X connect 49 0 40 0;
#X connect 50 0 42 0;
#X connect 51 0 7 0;
#X connect 53 0 52 0;
#X connect 54 0 49 0;
#X connect 54 0 53 0;
#X connect 54 0 55 0;
#X connect 56 0 47 0;
#X restore -125 166 pd sendLFO;
#X text -126 148 LFO;
#X text -126 190 getData;
#N canvas 438 85 624 544 fromAbleton 0;
#X msg -2 395 send /piano \$1;
#X msg 109 395 send /noise \$1;
#X msg 258 231 send /synth \$1;
#X obj 25 58 unpackOSC;
#X obj 25 83 routeOSC /live/track/meter;
#X obj 25 125 getParam 2;
#X msg 25 231 send /beat \$1;
#X obj 25 259 s toProcessing;
#X obj 130 125 getParam 6;
#X obj 258 259 s toProcessing;
#X obj 130 259 s toProcessing;
#X obj -2 423 s toProcessing;
#X obj 109 289 getParam 5;
#X obj 109 423 s toProcessing;
#X msg 130 231 send /HeartBeat \$1;
#X obj 258 125 getParam 4;
#X msg 213 395 send /noise \$1;
#X obj 213 423 s toProcessing;
#X obj 213 289 getParam 11;
#X obj 357 258 s toProcessing;
#X obj 357 124 getParam 8;
#X obj 25 28 udpreceive 9001;
#X obj -2 289 getParam 3;
#X msg 357 230 send /synth2 \$1;
#X obj 357 442 s toProcessing;
#X obj 357 308 getParam 15;
#X obj 465 440 s toProcessing;
#X obj 465 306 getParam 16;
#X msg 465 412 send /beat \$1;
#X msg 357 414 send /piano \$1;
#X obj 456 91 print;
#X obj 406 31 routeOSC /live/device/param;
#X connect 0 0 11 0;
#X connect 1 0 13 0;
#X connect 2 0 9 0;
#X connect 3 0 4 0;
#X connect 3 0 31 0;
#X connect 4 0 5 0;
#X connect 4 0 8 0;
#X connect 4 0 12 0;
#X connect 4 0 15 0;
#X connect 4 0 18 0;
#X connect 4 0 20 0;
#X connect 4 0 22 0;
#X connect 4 0 25 0;
#X connect 4 0 27 0;
#X connect 5 0 6 0;
#X connect 6 0 7 0;
#X connect 8 0 14 0;
#X connect 12 0 1 0;
#X connect 14 0 10 0;
#X connect 15 0 2 0;
#X connect 16 0 17 0;
#X connect 18 0 16 0;
#X connect 20 0 23 0;
#X connect 21 0 3 0;
#X connect 22 0 0 0;
#X connect 23 0 19 0;
#X connect 25 0 29 0;
#X connect 27 0 28 0;
#X connect 28 0 26 0;
#X connect 29 0 24 0;
#X restore -125 209 pd fromAbleton;
#N canvas 126 198 1325 623 effectControl 0;
#X floatatom 44 172 15 0 0 0 - - -;
#X obj 44 32 deck;
#X floatatom 497 172 15 0 0 0 - - -;
#X floatatom 122 429 5 0 0 0 - - -;
#X obj 95 403 t b f;
#X obj 95 361 knob 32 32 -1 1 0 0 empty empty empty 0 -8 0 8 -262144
-1 -1 2015 1;
#X obj 95 566 s toLive;
#X msg 95 540 send /live/device \$1 \$2 \$3 \$4;
#X obj 122 450 * 127;
#X obj 122 473 i;
#X floatatom 110 263 5 0 0 0 - - -;
#X obj 110 241 * 10;
#X obj 95 288 f;
#X obj 45 239 tgl 15 0 empty empty empty 17 7 0 10 -262144 -1 -1 1
1;
#X obj 95 311 + 0.3;
#X obj 45 263 metro 100;
#X obj 95 334 line 100;
#X obj 95 499 pack 14 2 2 f;
#X text 109 518 track14 filter frequency;
#X obj 45 216 loadbang;
#X floatatom 317 428 5 0 0 0 - - -;
#X obj 290 402 t b f;
#X obj 290 360 knob 32 32 -1 1 0 0 empty empty empty 0 -8 0 8 -262144
-1 -1 2015 1;
#X obj 290 565 s toLive;
#X msg 290 539 send /live/device \$1 \$2 \$3 \$4;
#X obj 317 449 * 127;
#X obj 317 472 i;
#X floatatom 305 262 5 0 0 0 - - -;
#X obj 305 240 * 10;
#X obj 290 287 f;
#X obj 240 238 tgl 15 0 empty empty empty 17 7 0 10 -262144 -1 -1 1
1;
#X obj 290 310 + 0.3;
#X obj 240 262 metro 100;
#X obj 290 333 line 100;
#X obj 240 215 loadbang;
#X obj 290 498 pack 0 3 2 f;
#X text 304 517 track0 filter frequency;
#X floatatom 561 426 5 0 0 0 - - -;
#X obj 534 400 t b f;
#X obj 534 358 knob 32 32 -1 1 0 0 empty empty empty 0 -8 0 8 -262144
-1 -1 2325 1;
#X obj 534 563 s toLive;
#X msg 534 537 send /live/device \$1 \$2 \$3 \$4;
#X floatatom 549 260 5 0 0 0 - - -;
#X obj 549 238 * 10;
#X obj 534 285 f;
#X obj 484 236 tgl 15 0 empty empty empty 17 7 0 10 -262144 -1 -1 1
1;
#X obj 484 260 metro 100;
#X obj 534 331 line 100;
#X obj 484 213 loadbang;
#X floatatom 756 425 5 0 0 0 - - -;
#X obj 729 399 t b f;
#X obj 729 357 knob 32 32 -1 1 0 0 empty empty empty 0 -8 0 8 -262144
-1 -1 2325 1;
#X obj 729 562 s toLive;
#X msg 729 536 send /live/device \$1 \$2 \$3 \$4;
#X floatatom 744 259 5 0 0 0 - - -;
#X obj 744 237 * 10;
#X obj 729 284 f;
#X obj 679 235 tgl 15 0 empty empty empty 17 7 0 10 -262144 -1 -1 1
1;
#X obj 679 259 metro 100;
#X obj 729 330 line 100;
#X obj 679 212 loadbang;
#X text 548 515 track0 filter resonance;
#X text 743 514 track0 filter resonance;
#X obj 729 495 pack 0 3 3 f;
#X obj 534 496 pack 14 2 3 f;
#X obj 561 447 * 3;
#X obj 756 446 * 3;
#X obj 534 308 + 0.5;
#X obj 729 307 + 0.5;
#X obj 497 32 deck;
#X floatatom 266 172 15 0 0 0 - - -;
#X obj 266 32 deck;
#X obj 723 32 deck;
#X floatatom 723 172 15 0 0 0 - - -;
#X floatatom 897 172 15 0 0 0 - - -;
#X obj 934 400 t b f;
#X obj 934 358 knob 32 32 -1 1 0 0 empty empty empty 0 -8 0 8 -262144
-1 -1 2325 1;
#X obj 934 563 s toLive;
#X msg 934 537 send /live/device \$1 \$2 \$3 \$4;
#X floatatom 949 260 5 0 0 0 - - -;
#X obj 949 238 * 10;
#X obj 934 285 f;
#X obj 884 236 tgl 15 0 empty empty empty 17 7 0 10 -262144 -1 -1 1
1;
#X obj 884 260 metro 100;
#X obj 934 331 line 100;
#X obj 884 213 loadbang;
#X floatatom 1156 425 5 0 0 0 - - -;
#X obj 1129 399 t b f;
#X obj 1129 357 knob 32 32 -1 1 0 0 empty empty empty 0 -8 0 8 -262144
-1 -1 2325 1;
#X obj 1129 562 s toLive;
#X msg 1129 536 send /live/device \$1 \$2 \$3 \$4;
#X floatatom 1144 259 5 0 0 0 - - -;
#X obj 1144 237 * 10;
#X obj 1129 284 f;
#X obj 1079 235 tgl 15 0 empty empty empty 17 7 0 10 -262144 -1 -1
1 1;
#X obj 1079 259 metro 100;
#X obj 1129 330 line 100;
#X obj 1079 212 loadbang;
#X obj 1156 446 * 3;
#X obj 1129 307 + 0.5;
#X obj 897 32 deck;
#X obj 1123 32 deck;
#X floatatom 1123 172 15 0 0 0 - - -;
#X obj 1129 495 pack 2 3 3 f;
#X obj 934 496 pack 2 3 2 f;
#X floatatom 961 424 5 0 0 0 - - -;
#X obj 961 445 * 127;
#X obj 961 468 i;
#X obj 934 308 + 0.5;
#X text 948 515 track2 filter resonance;
#X text 1143 514 track2 filter resonance;
#X connect 0 0 11 0;
#X connect 1 0 0 0;
#X connect 2 0 43 0;
#X connect 3 0 8 0;
#X connect 4 0 17 0;
#X connect 4 1 3 0;
#X connect 5 0 4 0;
#X connect 7 0 6 0;
#X connect 8 0 9 0;
#X connect 9 0 17 3;
#X connect 10 0 12 1;
#X connect 11 0 10 0;
#X connect 12 0 14 0;
#X connect 13 0 15 0;
#X connect 14 0 16 0;
#X connect 15 0 12 0;
#X connect 16 0 5 0;
#X connect 17 0 7 0;
#X connect 19 0 13 0;
#X connect 20 0 25 0;
#X connect 21 0 35 0;
#X connect 21 1 20 0;
#X connect 22 0 21 0;
#X connect 24 0 23 0;
#X connect 25 0 26 0;
#X connect 26 0 35 3;
#X connect 27 0 29 1;
#X connect 28 0 27 0;
#X connect 29 0 31 0;
#X connect 30 0 32 0;
#X connect 31 0 33 0;
#X connect 32 0 29 0;
#X connect 33 0 22 0;
#X connect 34 0 30 0;
#X connect 35 0 24 0;
#X connect 37 0 65 0;
#X connect 38 0 64 0;
#X connect 38 1 37 0;
#X connect 39 0 38 0;
#X connect 41 0 40 0;
#X connect 42 0 44 1;
#X connect 43 0 42 0;
#X connect 44 0 67 0;
#X connect 45 0 46 0;
#X connect 46 0 44 0;
#X connect 47 0 39 0;
#X connect 48 0 45 0;
#X connect 49 0 66 0;
#X connect 50 0 63 0;
#X connect 50 1 49 0;
#X connect 51 0 50 0;
#X connect 53 0 52 0;
#X connect 54 0 56 1;
#X connect 55 0 54 0;
#X connect 56 0 68 0;
#X connect 57 0 58 0;
#X connect 58 0 56 0;
#X connect 59 0 51 0;
#X connect 60 0 57 0;
#X connect 63 0 53 0;
#X connect 64 0 41 0;
#X connect 65 0 64 3;
#X connect 66 0 63 3;
#X connect 67 0 47 0;
#X connect 68 0 59 0;
#X connect 69 0 2 0;
#X connect 70 0 28 0;
#X connect 71 0 70 0;
#X connect 72 0 73 0;
#X connect 73 0 55 0;
#X connect 74 0 80 0;
#X connect 75 0 104 0;
#X connect 75 1 105 0;
#X connect 76 0 75 0;
#X connect 78 0 77 0;
#X connect 79 0 81 1;
#X connect 80 0 79 0;
#X connect 81 0 108 0;
#X connect 82 0 83 0;
#X connect 83 0 81 0;
#X connect 84 0 76 0;
#X connect 85 0 82 0;
#X connect 86 0 98 0;
#X connect 87 0 103 0;
#X connect 87 1 86 0;
#X connect 88 0 87 0;
#X connect 90 0 89 0;
#X connect 91 0 93 1;
#X connect 92 0 91 0;
#X connect 93 0 99 0;
#X connect 94 0 95 0;
#X connect 95 0 93 0;
#X connect 96 0 88 0;
#X connect 97 0 94 0;
#X connect 98 0 103 3;
#X connect 99 0 96 0;
#X connect 100 0 74 0;
#X connect 101 0 102 0;
#X connect 102 0 92 0;
#X connect 103 0 90 0;
#X connect 104 0 78 0;
#X connect 105 0 106 0;
#X connect 106 0 107 0;
#X connect 107 0 104 3;
#X connect 108 0 84 0;
#X restore -125 246 pd effectControl;
#N canvas 191 201 450 300 template 0;
#X obj -85 49 vsl 8 64 0 1 0 0 empty empty empty 0 -9 0 10 -262144
-1 -1 0 1;
#X floatatom -40 161 5 0 0 0 - - -;
#X obj -85 131 t b f;
#X obj -85 184 pack 0 f;
#X msg -85 225 send /live/volume \$1 \$2;
#X text -77 203 track0のvolumeをコントロール;
#X text -71 104 - 0;
#X text -70 40 - 1;
#X floatatom 133 160 5 0 0 0 - - -;
#X obj 88 130 t b f;
#X obj 88 183 pack 0 f;
#X text 102 202 track0のpanをコントロール;
#X msg 88 224 send /live/pan \$1 \$2;
#X obj 88 71 knob 32 32 -1 1 0 0 empty empty empty 0 -8 0 8 -262144
-1 -1 0 1;
#X obj -85 251 s toLive;
#X obj 88 250 s toLive;
#X connect 0 0 2 0;
#X connect 1 0 3 1;
#X connect 2 0 3 0;
#X connect 2 1 1 0;
#X connect 3 0 4 0;
#X connect 4 0 14 0;
#X connect 8 0 10 1;
#X connect 9 0 10 0;
#X connect 9 1 8 0;
#X connect 10 0 12 0;
#X connect 12 0 15 0;
#X connect 13 0 9 0;
#X restore -123 385 pd template;
#X connect 2 0 3 0;
#X connect 4 0 3 0;
#X connect 5 0 4 0;
#X connect 6 0 7 0;
#X connect 8 0 13 0;
#X connect 9 0 7 0;
#X connect 10 0 3 0;
#X connect 13 0 7 0;
#X connect 17 0 18 0;
#X connect 18 0 19 0;
