#N canvas 150 56 982 525 10;
#X msg 37 389 devices;
#X msg 97 389 open \$1;
#X msg 37 415 close;
#X obj 111 186 loadbang;
#X obj 97 291 \$1;
#X floatatom 97 316 5 0 0 0 port - -;
#X floatatom 436 187 5 0 0 0 - - -;
#X obj 436 161 inlet;
#X obj 111 126 bng 15 250 50 0 empty empty reset_device 17 7 0 10 -262144
-1 -1;
#X obj 507 161 inlet;
#X obj 436 212 clip 0 1;
#X obj 111 148 bng 15 250 50 0 empty empty reset_pin_mode 17 7 0 10
-262144 -1 -1;
#X obj 507 189 tgl 15 0 empty empty empty 17 7 0 10 -262144 -1 -1 1
1;
#X obj 111 211 t b b;
#X msg 166 266 pinMode 7 1;
#X msg 166 291 pinMode 8 1;
#X text 259 266 pin 7 -> digital(1);
#X text 259 290 pin 8 -> digital(1);
#X obj 602 161 inlet;
#X obj 602 189 tgl 15 0 empty empty empty 17 7 0 10 -262144 -1 -1 0
1;
#X msg 507 236 digital 7 \$1;
#X msg 602 236 digital 8 \$1;
#X msg 166 241 pinMode 6 3;
#X text 259 241 pin 6 -> PWM(3);
#X msg 436 236 pwm 6 \$1;
#X msg 184 328 pinMode 11 3;
#X msg 184 353 pinMode 12 1;
#X msg 184 378 pinMode 13 1;
#X text 277 328 pin 11 -> PWM(3);
#X text 277 353 pin 12 -> digital(1);
#X text 277 377 pin 13 -> digital(1);
#X floatatom 696 186 5 0 0 0 - - -;
#X obj 696 160 inlet;
#X obj 767 160 inlet;
#X obj 696 211 clip 0 1;
#X obj 767 188 tgl 15 0 empty empty empty 17 7 0 10 -262144 -1 -1 0
1;
#X obj 862 160 inlet;
#X obj 862 188 tgl 15 0 empty empty empty 17 7 0 10 -262144 -1 -1 0
1;
#X msg 696 235 pwm 11 \$1;
#X msg 767 235 digital 12 \$1;
#X msg 862 235 digital 13 \$1;
#X obj 97 342 t f f;
#X msg 156 406 close \$1;
#X obj 260 489 arduino 1;
#X obj 290 112 loadbang;
#X obj 290 161 metro 10000;
#X obj 290 138 tgl 15 0 empty empty empty 17 7 0 10 -262144 -1 -1 1
1;
#X connect 0 0 43 0;
#X connect 1 0 43 0;
#X connect 2 0 43 0;
#X connect 3 0 13 0;
#X connect 4 0 5 0;
#X connect 5 0 41 0;
#X connect 6 0 10 0;
#X connect 7 0 6 0;
#X connect 8 0 3 0;
#X connect 9 0 12 0;
#X connect 10 0 24 0;
#X connect 11 0 22 0;
#X connect 11 0 14 0;
#X connect 11 0 15 0;
#X connect 11 0 25 0;
#X connect 11 0 26 0;
#X connect 11 0 27 0;
#X connect 12 0 20 0;
#X connect 13 0 22 0;
#X connect 13 0 14 0;
#X connect 13 0 15 0;
#X connect 13 0 25 0;
#X connect 13 0 26 0;
#X connect 13 0 27 0;
#X connect 13 1 4 0;
#X connect 14 0 43 0;
#X connect 15 0 43 0;
#X connect 18 0 19 0;
#X connect 19 0 21 0;
#X connect 20 0 43 0;
#X connect 21 0 43 0;
#X connect 22 0 43 0;
#X connect 24 0 43 0;
#X connect 25 0 43 0;
#X connect 26 0 43 0;
#X connect 27 0 43 0;
#X connect 31 0 34 0;
#X connect 32 0 31 0;
#X connect 33 0 35 0;
#X connect 34 0 38 0;
#X connect 35 0 39 0;
#X connect 36 0 37 0;
#X connect 37 0 40 0;
#X connect 38 0 43 0;
#X connect 39 0 43 0;
#X connect 40 0 43 0;
#X connect 41 0 1 0;
#X connect 41 1 42 0;
#X connect 42 0 43 0;
#X connect 44 0 46 0;
#X connect 45 0 11 0;
#X connect 46 0 45 0;
#X coords 0 -1 1 1 150 70 1 100 100;
