#N canvas 494 146 790 605 10;
#X floatatom 70 105 5 0 0 0 - - -;
#X obj 70 53 inlet;
#X obj 70 570 outlet;
#X obj 132 570 outlet;
#X text 40 314 正転;
#X text 154 314 逆転;
#X obj 70 79 clip -1 1;
#X obj 70 132 vsl 8 64 -1 1 0 0 empty empty empty 0 -9 0 10 -262144
-1 -1 357 1;
#X obj 70 212 > 0;
#X obj 70 259 tgl 15 0 empty empty empty 17 7 0 10 -262144 -1 -1 0
1;
#X obj 70 235 change;
#X obj 70 281 sel 1 0;
#X obj 70 315 bng 15 250 50 0 empty empty empty 17 7 0 10 -262144 -1
-1;
#X obj 132 315 bng 15 250 50 0 empty empty empty 17 7 0 10 -262144
-1 -1;
#X msg 100 504 0;
#X msg 70 504 1;
#X floatatom 70 543 5 0 0 0 - - -;
#X msg 164 503 0;
#X msg 132 503 1;
#X floatatom 132 542 5 0 0 0 - - -;
#X text 66 26 モーターのコントロール;
#X text 80 154 - 0を通るタイミングでトリガー;
#X obj 199 211 timer;
#X obj 199 261 f;
#X floatatom 199 327 10 0 0 0 - - -;
#X obj 199 283 -;
#X obj 199 234 t f b f;
#X obj 226 189 bng 15 250 50 0 empty empty empty 17 7 0 10 -262144
-1 -1;
#X obj 199 305 abs;
#X obj 100 456 delay 100;
#X obj 100 479 bng 15 250 50 0 empty empty empty 17 7 0 10 -262144
-1 -1;
#X obj 355 211 vsl 8 64 0 1 0 0 empty empty empty 0 -9 0 10 -262144
-1 -1 0 1;
#X text 370 262 LFOでモーターの回転持続時間を変更;
#X floatatom 199 420 10 0 0 0 - - -;
#X obj 164 479 bng 15 250 50 0 empty empty empty 17 7 0 10 -262144
-1 -1;
#X obj 164 456 delay 100;
#X floatatom 355 356 5 0 0 0 - - -;
#X obj 355 106 r Kv;
#X floatatom 355 132 5 0 0 0 - - -;
#X obj 355 157 / 127;
#X floatatom 355 183 5 0 0 0 - - -;
#X obj 404 560 outlet;
#X text 205 346 前回トリガーからの;
#X text 206 364 経過時間（ミリ秒）;
#X text 390 103 同期現象の結合強度;
#X text 211 435 モーターの回転持続時間;
#X text 454 559 回転速度へ;
#X text 420 515 モーターの回転持続時間が長い場合（枝の揺れが大きい場合）
;
#X text 420 534 モーターの回転速度を大きくする（枝が揺れる際の初速度を大きくする）
;
#X obj 199 397 * 0.9;
#X obj 355 288 * 0.3;
#X obj 404 374 bng 15 250 50 0 empty empty empty 17 7 0 10 -262144
-1 -1;
#X obj 355 316 + 0.5;
#X msg 404 402 0.94;
#X connect 0 0 7 0;
#X connect 1 0 6 0;
#X connect 6 0 0 0;
#X connect 7 0 8 0;
#X connect 8 0 10 0;
#X connect 9 0 11 0;
#X connect 9 0 27 0;
#X connect 10 0 9 0;
#X connect 11 0 12 0;
#X connect 11 1 13 0;
#X connect 12 0 29 0;
#X connect 12 0 15 0;
#X connect 13 0 35 0;
#X connect 13 0 18 0;
#X connect 14 0 16 0;
#X connect 14 0 19 0;
#X connect 15 0 16 0;
#X connect 16 0 2 0;
#X connect 17 0 19 0;
#X connect 17 0 16 0;
#X connect 18 0 19 0;
#X connect 19 0 3 0;
#X connect 22 0 26 0;
#X connect 23 0 25 0;
#X connect 24 0 49 0;
#X connect 25 0 28 0;
#X connect 26 0 23 1;
#X connect 26 1 23 0;
#X connect 26 2 25 1;
#X connect 27 0 22 1;
#X connect 28 0 24 0;
#X connect 29 0 30 0;
#X connect 30 0 14 0;
#X connect 31 0 50 0;
#X connect 31 0 51 0;
#X connect 33 0 29 1;
#X connect 33 0 35 1;
#X connect 34 0 17 0;
#X connect 35 0 34 0;
#X connect 36 0 49 1;
#X connect 37 0 38 0;
#X connect 38 0 39 0;
#X connect 39 0 40 0;
#X connect 40 0 31 0;
#X connect 49 0 33 0;
#X connect 50 0 52 0;
#X connect 51 0 53 0;
#X connect 52 0 36 0;
#X connect 53 0 41 0;
