#N canvas 0 22 450 300 10;
#X obj 30 206 line;
#X obj 30 134 t b f;
#X msg 30 183 3.49575 4000;
#X msg 57 158 set \$1 4000;
#X obj 30 21 inlet;
#X obj 30 229 outlet;
#X obj 30 109 / 20;
#X obj 51 82 \$1;
#X obj 30 52 t f b;
#X connect 0 0 5 0;
#X connect 1 0 2 0;
#X connect 1 1 3 0;
#X connect 2 0 0 0;
#X connect 3 0 2 0;
#X connect 4 0 8 0;
#X connect 6 0 1 0;
#X connect 7 0 6 1;
#X connect 8 0 6 0;
#X connect 8 1 7 0;
