#N canvas 335 85 859 406 10;
#X declare -lib mrpeach;
#X obj 450 320 list split;
#X obj 450 297 l;
#X floatatom 478 342 5 0 0 0 - - -;
#X obj 450 269 t b l;
#X obj 317 90 unpackOSC;
#X obj 106 51 import mrpeach;
#X text 104 32 import OSC library;
#X obj 317 232 spigot;
#X obj 350 208 == \$1;
#X obj 385 233 spigot;
#X obj 418 209 == \$1;
#X obj 450 234 spigot;
#X obj 483 210 == \$1;
#X obj 518 235 spigot;
#X obj 551 211 == \$1;
#X obj 317 161 t l b;
#X obj 385 162 t l b;
#X obj 450 163 t l b;
#X obj 518 164 t l b;
#X obj 106 147 outlet;
#X obj 317 64 inlet;
#X obj 257 64 r Xively;
#X obj 144 120 bng 16 250 50 0 empty empty empty 17 7 0 10 -262144
-1 -1;
#X msg 350 185 0;
#X msg 418 186 1;
#X msg 483 187 2;
#X msg 551 188 3;
#X obj 585 235 spigot;
#X obj 618 211 == \$1;
#X obj 585 164 t l b;
#X msg 618 188 4;
#X floatatom 106 120 5 0 0 0 - - -;
#X obj 478 366 s \$0_data;
#X obj 106 76 r \$0_data;
#X obj 317 117 routeOSC /prefix0 /prefix1 /prefix2 /prefix3 /prefix4
/prefix5;
#X obj 656 235 spigot;
#X obj 689 211 == \$1;
#X obj 656 164 t l b;
#X msg 689 188 5;
#X connect 0 1 2 0;
#X connect 1 0 0 0;
#X connect 2 0 32 0;
#X connect 3 0 1 0;
#X connect 3 1 1 1;
#X connect 4 0 34 0;
#X connect 7 0 3 0;
#X connect 8 0 7 1;
#X connect 9 0 3 0;
#X connect 10 0 9 1;
#X connect 11 0 3 0;
#X connect 12 0 11 1;
#X connect 13 0 3 0;
#X connect 14 0 13 1;
#X connect 15 0 7 0;
#X connect 15 1 23 0;
#X connect 16 0 9 0;
#X connect 16 1 24 0;
#X connect 17 0 11 0;
#X connect 17 1 25 0;
#X connect 18 0 13 0;
#X connect 18 1 26 0;
#X connect 20 0 4 0;
#X connect 21 0 22 0;
#X connect 21 0 4 0;
#X connect 23 0 8 0;
#X connect 24 0 10 0;
#X connect 25 0 12 0;
#X connect 26 0 14 0;
#X connect 27 0 3 0;
#X connect 28 0 27 1;
#X connect 29 0 27 0;
#X connect 29 1 30 0;
#X connect 30 0 28 0;
#X connect 31 0 19 0;
#X connect 33 0 31 0;
#X connect 34 0 15 0;
#X connect 34 1 16 0;
#X connect 34 2 17 0;
#X connect 34 3 18 0;
#X connect 34 4 29 0;
#X connect 34 5 37 0;
#X connect 35 0 3 0;
#X connect 36 0 35 1;
#X connect 37 0 35 0;
#X connect 37 1 38 0;
#X connect 38 0 36 0;
#X coords 0 -1 1 140 70 40 1 100 100;
