#N canvas 10 59 1347 643 10;
#X declare -lib mrpeach;
#X declare -lib flatgui;
#X declare -lib mrpeach;
#X declare -lib mrpeach;
#X declare -lib mrpeach;
#X declare -lib mrpeach;
#X declare -lib mrpeach;
#X declare -lib mrpeach;
#X obj 15 -52 import mrpeach;
#X obj 14 -6 udpreceive 7703;
#X text 14 -25 OSC receive from Processing;
#X obj 14 20 s Xively;
#N canvas 491 173 641 257 UI 0;
#X obj 105 124 tgl 30 0 empty empty empty 17 7 0 10 -262144 -1 -1 1
1;
#X obj 105 24 import flatgui;
#X obj 193 119 knob 32 32 0 127 0 0 empty empty 結合強度(K) 0 -8
1 10 -262144 -1 -1 381 1;
#X obj 193 170 / 127;
#N canvas 0 22 450 278 (subpatch) 0;
#X array obj_phase 8 float 2;
#X coords 0 278 1 277 100 70 0;
#X restore 218 24 graph;
#X msg 105 191 1;
#X obj 105 213 s clock;
#X obj 193 213 s K;
#X obj 193 75 r con;
#X obj 105 170 metro 10;
#X floatatom 145 137 5 0 0 2 Δt(ms) - -;
#X obj 145 52 loadbang;
#X obj 161 170 s dt;
#N canvas 756 203 245 291 LFO 0;
#X obj 25 32 loadbang;
#X obj 25 55 tgl 15 0 empty empty empty 17 7 0 10 -262144 -1 -1 1 1
;
#X obj 25 129 +;
#X floatatom 69 230 5 0 0 0 - - -;
#X obj 69 203 expr if($f1>$f2 \, 0 \, $f1);
#X obj 96 153 pi;
#X obj 96 177 * 2;
#X obj 69 129 t f b;
#X obj 89 32 inlet;
#X floatatom 89 56 5 0 0 0 - - -;
#X obj 25 259 outlet;
#X obj 25 180 vsl 8 64 -1 1 0 0 empty empty empty 0 -9 0 10 -262144
-1 -1 4956 1;
#X obj 25 153 sin;
#X obj 25 82 metro 200;
#X msg 25 104 0.01;
#X connect 0 0 1 0;
#X connect 1 0 13 0;
#X connect 2 0 7 0;
#X connect 2 0 12 0;
#X connect 3 0 2 1;
#X connect 4 0 3 0;
#X connect 5 0 6 0;
#X connect 6 0 4 1;
#X connect 7 0 4 0;
#X connect 7 1 5 0;
#X connect 8 0 9 0;
#X connect 9 0 13 1;
#X connect 11 0 10 0;
#X connect 12 0 11 0;
#X connect 13 0 14 0;
#X connect 14 0 2 0;
#X restore 285 29 pd LFO;
#X obj 285 54 expr ($f1+1)/2;
#X floatatom 285 2 5 0 0 0 - - -;
#X obj 285 128 vsl 8 64 -40 160 0 0 empty empty empty 0 -9 0 10 -262144
-1 -1 1752 1;
#X obj 285 78 expr 1-$f1;
#X obj 237 169 s Kv;
#X obj 285 199 clip 0 127;
#X obj 193 191 * 0.1;
#X floatatom 300 129 5 0 0 0 - - -;
#X msg 145 75 10;
#X obj 285 102 expr $f1*167-20;
#X connect 0 0 9 0;
#X connect 2 0 3 0;
#X connect 2 0 18 0;
#X connect 3 0 20 0;
#X connect 5 0 6 0;
#X connect 8 0 2 0;
#X connect 9 0 5 0;
#X connect 10 0 9 1;
#X connect 10 0 12 0;
#X connect 11 0 22 0;
#X connect 11 0 0 0;
#X connect 13 0 14 0;
#X connect 14 0 17 0;
#X connect 15 0 13 0;
#X connect 16 0 19 0;
#X connect 17 0 23 0;
#X connect 19 0 2 0;
#X connect 20 0 7 0;
#X connect 22 0 10 0;
#X connect 23 0 16 0;
#X connect 23 0 21 0;
#X coords 0 -1 1 1 150 60 1 100 100;
#X restore 14 58 pd UI;
#X obj 326 236 sin;
#X obj 326 260 vsl 8 64 -1 1 0 0 empty empty empty 0 -9 0 10 -262144
-1 -1 6033 1;
#X floatatom 326 172 10 0 0 0 - - -;
#X text 237 171 位相(rad);
#X text 237 91 角速度(rad/s);
#X floatatom 326 91 5 0 0 0 - - -;
#X text 238 117 蔵本モデルによる;
#X text 237 135 引き込み処理;
#X text 334 135 arg1: オブジェクトのID;
#X text 334 151 arg2: オブジェクト数;
#X text 13 -74 import osc library;
#X obj 417 260 vsl 8 64 0.5 1 0 0 empty empty empty 0 -9 0 10 -262144
-1 -1 0 1;
#X obj 356 260 vsl 8 64 -1 1 0 0 empty empty empty 0 -9 0 10 -262144
-1 -1 4290 1;
#X obj 417 236 abs;
#X text 333 401 モーターのコントロール;
#X text 414 523 回転速度;
#X obj 356 236 sin;
#X text 323 523 正転;
#X text 370 523 逆転;
#X obj 14 159 r v006;
#X obj 57 159 r v007;
#X obj 101 159 r v008;
#X obj 99 185 r v011;
#X obj 143 185 r v012;
#X obj 186 185 r v013;
#X obj 326 502 s v007;
#X obj 371 502 s v008;
#X obj 417 502 s v006;
#N canvas 427 362 257 180 phase_shift 0;
#X obj 30 28 inlet;
#X obj 30 117 +;
#X obj 57 75 pi;
#X obj 30 53 t f b;
#X obj 30 141 outlet;
#X text 96 28 pi/4 位相をシフトする;
#X obj 57 96 / 4;
#X connect 0 0 3 0;
#X connect 1 0 4 0;
#X connect 2 0 6 0;
#X connect 3 0 1 0;
#X connect 3 1 2 0;
#X connect 6 0 1 1;
#X restore 356 210 pd phase_shift;
#X text 357 190 pi/4 位相をシフト;
#N canvas 159 326 234 207 noise 0;
#X obj 61 87 random 10;
#X obj 34 133 * 1;
#X obj 34 63 t f b;
#X obj 34 33 inlet;
#X obj 34 160 outlet;
#X floatatom 61 132 5 0 0 0 - - -;
#X obj 61 109 expr $f1*0.05+0.5;
#X connect 0 0 6 0;
#X connect 1 0 4 0;
#X connect 2 0 1 0;
#X connect 2 1 0 0;
#X connect 3 0 2 0;
#X connect 6 0 5 0;
#X connect 6 0 1 1;
#X restore 426 475 pd noise;
#X text 424 443 回転速度に;
#X text 423 457 ノイズを乗算;
#X text 335 69 生体電位を角速度に変換;
#X obj 497 237 sin;
#X obj 497 261 vsl 8 64 -1 1 0 0 empty empty empty 0 -9 0 10 -262144
-1 -1 5869 1;
#X floatatom 497 173 10 0 0 0 - - -;
#X floatatom 497 92 5 0 0 0 - - -;
#X text 505 136 arg1: オブジェクトのID;
#X text 505 152 arg2: オブジェクト数;
#X obj 588 261 vsl 8 64 0.5 1 0 0 empty empty empty 0 -9 0 10 -262144
-1 -1 5889 1;
#X obj 527 261 vsl 8 64 -1 1 0 0 empty empty empty 0 -9 0 10 -262144
-1 -1 6197 1;
#X obj 588 237 abs;
#X text 504 402 モーターのコントロール;
#X text 585 524 回転速度;
#X obj 527 237 sin;
#X text 494 524 正転;
#X text 541 524 逆転;
#N canvas 427 362 257 180 phase_shift 0;
#X obj 30 28 inlet;
#X obj 30 117 +;
#X obj 57 75 pi;
#X obj 30 53 t f b;
#X obj 57 96 / 4;
#X obj 30 141 outlet;
#X text 96 28 pi/4 位相をシフトする;
#X connect 0 0 3 0;
#X connect 1 0 5 0;
#X connect 2 0 4 0;
#X connect 3 0 1 0;
#X connect 3 1 2 0;
#X connect 4 0 1 1;
#X restore 527 211 pd phase_shift;
#X text 528 191 pi/4 位相をシフト;
#X text 595 443 回転速度に;
#X text 594 457 ノイズを乗算;
#X obj 497 503 s v012;
#X obj 542 503 s v013;
#X obj 588 503 s v011;
#X obj 666 238 sin;
#X obj 666 262 vsl 8 64 -1 1 0 0 empty empty empty 0 -9 0 10 -262144
-1 -1 6268 1;
#X floatatom 666 174 10 0 0 0 - - -;
#X floatatom 666 93 5 0 0 0 - - -;
#X text 674 137 arg1: オブジェクトのID;
#X text 674 153 arg2: オブジェクト数;
#X obj 757 262 vsl 8 64 0.5 1 0 0 empty empty empty 0 -9 0 10 -262144
-1 -1 3783 1;
#X obj 696 262 vsl 8 64 -1 1 0 0 empty empty empty 0 -9 0 10 -262144
-1 -1 5671 1;
#X obj 757 238 abs;
#X text 673 403 モーターのコントロール;
#X text 754 525 回転速度;
#X obj 696 238 sin;
#X text 663 525 正転;
#X text 710 525 逆転;
#N canvas 427 362 257 180 phase_shift 0;
#X obj 30 28 inlet;
#X obj 30 117 +;
#X obj 57 75 pi;
#X obj 30 53 t f b;
#X obj 57 96 / 4;
#X obj 30 141 outlet;
#X text 96 28 pi/4 位相をシフトする;
#X connect 0 0 3 0;
#X connect 1 0 5 0;
#X connect 2 0 4 0;
#X connect 3 0 1 0;
#X connect 3 1 2 0;
#X connect 4 0 1 1;
#X restore 696 212 pd phase_shift;
#X text 697 192 pi/4 位相をシフト;
#X text 764 443 回転速度に;
#X text 763 457 ノイズを乗算;
#X obj 837 239 sin;
#X obj 837 263 vsl 8 64 -1 1 0 0 empty empty empty 0 -9 0 10 -262144
-1 -1 4698 1;
#X floatatom 837 175 10 0 0 0 - - -;
#X floatatom 837 94 5 0 0 0 - - -;
#X text 845 138 arg1: オブジェクトのID;
#X text 845 154 arg2: オブジェクト数;
#X obj 928 263 vsl 8 64 0.5 1 0 0 empty empty empty 0 -9 0 10 -262144
-1 -1 0 1;
#X obj 867 263 vsl 8 64 -1 1 0 0 empty empty empty 0 -9 0 10 -262144
-1 -1 2305 1;
#X obj 928 239 abs;
#X text 844 404 モーターのコントロール;
#X text 925 526 回転速度;
#X obj 867 239 sin;
#X text 834 526 正転;
#X text 881 526 逆転;
#N canvas 427 362 257 180 phase_shift 0;
#X obj 30 28 inlet;
#X obj 30 117 +;
#X obj 57 75 pi;
#X obj 30 53 t f b;
#X obj 57 96 / 4;
#X obj 30 141 outlet;
#X text 96 28 pi/4 位相をシフトする;
#X connect 0 0 3 0;
#X connect 1 0 5 0;
#X connect 2 0 4 0;
#X connect 3 0 1 0;
#X connect 3 1 2 0;
#X connect 4 0 1 1;
#X restore 867 213 pd phase_shift;
#X text 868 193 pi/4 位相をシフト;
#X text 935 443 回転速度に;
#X text 934 457 ノイズを乗算;
#X obj 666 504 s v107;
#X obj 711 504 s v108;
#X obj 757 504 s v106;
#X obj 837 505 s v112;
#X obj 882 505 s v113;
#X obj 928 505 s v111;
#X obj 14 293 r v106;
#X obj 57 293 r v107;
#X obj 101 293 r v108;
#X obj 99 319 r v111;
#X obj 143 319 r v112;
#X obj 186 319 r v113;
#N canvas 159 326 234 207 noise 0;
#X obj 61 87 random 10;
#X obj 34 133 * 1;
#X obj 34 63 t f b;
#X obj 34 33 inlet;
#X obj 34 160 outlet;
#X floatatom 61 132 5 0 0 0 - - -;
#X obj 61 109 expr $f1*0.05+0.5;
#X connect 0 0 6 0;
#X connect 1 0 4 0;
#X connect 2 0 1 0;
#X connect 2 1 0 0;
#X connect 3 0 2 0;
#X connect 6 0 5 0;
#X connect 6 0 1 1;
#X restore 597 475 pd noise;
#N canvas 159 326 234 207 noise 0;
#X obj 61 87 random 10;
#X obj 34 133 * 1;
#X obj 34 63 t f b;
#X obj 34 33 inlet;
#X obj 34 160 outlet;
#X floatatom 61 132 5 0 0 0 - - -;
#X obj 61 109 expr $f1*0.05+0.5;
#X connect 0 0 6 0;
#X connect 1 0 4 0;
#X connect 2 0 1 0;
#X connect 2 1 0 0;
#X connect 3 0 2 0;
#X connect 6 0 5 0;
#X connect 6 0 1 1;
#X restore 766 475 pd noise;
#N canvas 159 326 234 207 noise 0;
#X obj 61 87 random 10;
#X obj 34 133 * 1;
#X obj 34 63 t f b;
#X obj 34 33 inlet;
#X obj 34 160 outlet;
#X floatatom 61 132 5 0 0 0 - - -;
#X obj 61 109 expr $f1*0.05+0.5;
#X connect 0 0 6 0;
#X connect 1 0 4 0;
#X connect 2 0 1 0;
#X connect 2 1 0 0;
#X connect 3 0 2 0;
#X connect 6 0 5 0;
#X connect 6 0 1 1;
#X restore 937 475 pd noise;
#X floatatom 705 444 5 0 0 0 - - -;
#X floatatom 353 444 5 0 0 0 - - -;
#X floatatom 536 444 5 0 0 0 - - -;
#X floatatom 876 444 5 0 0 0 - - -;
#X obj 15 424 r v206;
#X obj 58 424 r v207;
#X obj 102 424 r v208;
#X obj 100 450 r v211;
#X obj 144 450 r v212;
#X obj 187 450 r v213;
#X obj 998 238 sin;
#X floatatom 998 174 10 0 0 0 - - -;
#X floatatom 998 93 5 0 0 0 - - -;
#X text 1006 137 arg1: オブジェクトのID;
#X text 1006 153 arg2: オブジェクト数;
#X obj 1089 262 vsl 8 64 0.5 1 0 0 empty empty empty 0 -9 0 10 -262144
-1 -1 6202 1;
#X obj 1028 262 vsl 8 64 -1 1 0 0 empty empty empty 0 -9 0 10 -262144
-1 -1 25 1;
#X obj 1089 238 abs;
#X text 1005 403 モーターのコントロール;
#X text 1086 525 回転速度;
#X obj 1028 238 sin;
#X text 995 525 正転;
#X text 1042 525 逆転;
#N canvas 427 362 257 180 phase_shift 0;
#X obj 30 28 inlet;
#X obj 30 117 +;
#X obj 57 75 pi;
#X obj 30 53 t f b;
#X obj 57 96 / 4;
#X obj 30 141 outlet;
#X text 96 28 pi/4 位相をシフトする;
#X connect 0 0 3 0;
#X connect 1 0 5 0;
#X connect 2 0 4 0;
#X connect 3 0 1 0;
#X connect 3 1 2 0;
#X connect 4 0 1 1;
#X restore 1028 212 pd phase_shift;
#X text 1029 192 pi/4 位相をシフト;
#X text 1096 443 回転速度に;
#X text 1095 457 ノイズを乗算;
#X obj 1169 239 sin;
#X obj 1169 263 vsl 8 64 -1 1 0 0 empty empty empty 0 -9 0 10 -262144
-1 -1 127 1;
#X floatatom 1169 175 10 0 0 0 - - -;
#X floatatom 1169 94 5 0 0 0 - - -;
#X text 1177 138 arg1: オブジェクトのID;
#X text 1177 154 arg2: オブジェクト数;
#X obj 1260 263 vsl 8 64 0.5 1 0 0 empty empty empty 0 -9 0 10 -262144
-1 -1 0 1;
#X obj 1199 263 vsl 8 64 -1 1 0 0 empty empty empty 0 -9 0 10 -262144
-1 -1 1640 1;
#X obj 1260 239 abs;
#X text 1176 404 モーターのコントロール;
#X text 1257 526 回転速度;
#X obj 1199 239 sin;
#X text 1166 526 正転;
#X text 1213 526 逆転;
#N canvas 427 362 257 180 phase_shift 0;
#X obj 30 28 inlet;
#X obj 30 117 +;
#X obj 57 75 pi;
#X obj 30 53 t f b;
#X obj 57 96 / 4;
#X obj 30 141 outlet;
#X text 96 28 pi/4 位相をシフトする;
#X connect 0 0 3 0;
#X connect 1 0 5 0;
#X connect 2 0 4 0;
#X connect 3 0 1 0;
#X connect 3 1 2 0;
#X connect 4 0 1 1;
#X restore 1199 213 pd phase_shift;
#X text 1200 193 pi/4 位相をシフト;
#X text 1267 443 回転速度に;
#X text 1266 457 ノイズを乗算;
#N canvas 159 326 234 207 noise 0;
#X obj 61 87 random 10;
#X obj 34 133 * 1;
#X obj 34 63 t f b;
#X obj 34 33 inlet;
#X obj 34 160 outlet;
#X floatatom 61 132 5 0 0 0 - - -;
#X obj 61 109 expr $f1*0.05+0.5;
#X connect 0 0 6 0;
#X connect 1 0 4 0;
#X connect 2 0 1 0;
#X connect 2 1 0 0;
#X connect 3 0 2 0;
#X connect 6 0 5 0;
#X connect 6 0 1 1;
#X restore 1098 475 pd noise;
#N canvas 159 326 234 207 noise 0;
#X obj 61 87 random 10;
#X obj 34 133 * 1;
#X obj 34 63 t f b;
#X obj 34 33 inlet;
#X obj 34 160 outlet;
#X floatatom 61 132 5 0 0 0 - - -;
#X obj 61 109 expr $f1*0.05+0.5;
#X connect 0 0 6 0;
#X connect 1 0 4 0;
#X connect 2 0 1 0;
#X connect 2 1 0 0;
#X connect 3 0 2 0;
#X connect 6 0 5 0;
#X connect 6 0 1 1;
#X restore 1269 475 pd noise;
#X floatatom 1037 444 5 0 0 0 - - -;
#X floatatom 1208 444 5 0 0 0 - - -;
#X obj 998 263 vsl 8 64 -1 1 0 0 empty empty empty 0 -9 0 10 -262144
-1 -1 662 1;
#X obj 326 118 kuramoto 0 6;
#X obj 497 119 kuramoto 1 6;
#X obj 666 120 kuramoto 2 6;
#X obj 837 121 kuramoto 3 6;
#X obj 998 120 kuramoto 4 6;
#X obj 1169 121 kuramoto 5 6;
#X obj 998 504 s v207;
#X obj 1043 504 s v208;
#X obj 1089 504 s v206;
#X obj 1169 505 s v212;
#X obj 1214 505 s v213;
#X obj 1260 505 s v211;
#X obj 14 212 arduino_uno2 4;
#X obj 326 -19 readosc2 0;
#X obj 497 -19 readosc2 1;
#X obj 666 -19 readosc2 2;
#X obj 837 -19 readosc2 3;
#X obj 998 -19 readosc2 4;
#X obj 1169 -19 readosc2 5;
#X obj 588 421 * 1;
#X obj 757 423 * 1;
#X obj 928 423 * 1;
#X obj 1089 423 * 1;
#X obj 1260 423 * 1;
#X text 429 316 0.5;
#X text 429 252 1;
#X text 602 317 0.5;
#X text 602 253 1;
#X text 770 318 0.5;
#X text 770 254 1;
#X text 943 319 0.5;
#X text 943 255 1;
#X text 1104 318 0.5;
#X text 1104 254 1;
#X text 1276 318 0.5;
#X text 1276 254 1;
#X text 216 33 引数大：揺れの間隔小;
#X text 216 50 引数小：揺れの間隔大;
#X text 204 14 tuningオブジェクト;
#X obj 417 421 * 1;
#X obj 326 -46 cnv 15 70 20 empty empty 1 3 11 0 14 -233017 -66577
0;
#X obj 496 -46 cnv 15 70 20 empty empty 2 3 11 0 14 -233017 -66577
0;
#X obj 666 -46 cnv 15 70 20 empty empty 3 3 11 0 14 -233017 -66577
0;
#X obj 836 -46 cnv 15 70 20 empty empty 4 3 11 0 14 -233017 -66577
0;
#X obj 997 -46 cnv 15 70 20 empty empty 5 3 11 0 14 -233017 -66577
0;
#X obj 1167 -46 cnv 15 70 20 empty empty 6 3 11 0 14 -233017 -66577
0;
#X obj 326 379 spigot;
#X obj 359 360 tgl 15 0 empty empty empty 17 7 0 10 -262144 -1 -1 1
1;
#X obj 359 339 loadbang;
#X obj 497 379 spigot;
#X obj 530 360 tgl 15 0 empty empty empty 17 7 0 10 -262144 -1 -1 1
1;
#X obj 530 339 loadbang;
#X obj 666 379 spigot;
#X obj 699 360 tgl 15 0 empty empty empty 17 7 0 10 -262144 -1 -1 1
1;
#X obj 699 339 loadbang;
#X obj 837 379 spigot;
#X obj 870 360 tgl 15 0 empty empty empty 17 7 0 10 -262144 -1 -1 1
1;
#X obj 870 339 loadbang;
#X obj 998 379 spigot;
#X obj 1031 360 tgl 15 0 empty empty empty 17 7 0 10 -262144 -1 -1
1 1;
#X obj 1031 339 loadbang;
#X obj 1169 379 spigot;
#X obj 1202 360 tgl 15 0 empty empty empty 17 7 0 10 -262144 -1 -1
1 1;
#X obj 1202 339 loadbang;
#X text 380 359 モーターとの接続;
#X text 552 359 モーターとの接続;
#X text 724 359 モーターとの接続;
#X text 893 359 モーターとの接続;
#X text 1054 359 モーターとの接続;
#X text 1227 359 モーターとの接続;
#X obj 326 421 motor;
#X obj 14 346 arduino_uno2 5;
#X obj 15 477 arduino_uno2 6;
#X obj 998 34 tuning 20;
#X obj 998 423 motor_5;
#X obj 326 32 tuning 10;
#X obj 666 34 tuning 5;
#X obj 1169 423 motor_6;
#X obj 837 35 tuning 20;
#X obj 837 423 motor_4;
#X obj 666 423 motor_3;
#X obj 497 421 motor_2;
#X obj 497 33 tuning 15;
#X obj 1169 35 tuning 250;
#X connect 1 0 3 0;
#X connect 5 0 6 0;
#X connect 6 0 207 0;
#X connect 7 0 5 0;
#X connect 7 0 33 0;
#X connect 10 0 161 0;
#X connect 16 0 200 0;
#X connect 18 0 16 0;
#X connect 21 0 17 0;
#X connect 21 0 18 0;
#X connect 24 0 173 0;
#X connect 25 0 173 1;
#X connect 26 0 173 2;
#X connect 27 0 173 3;
#X connect 28 0 173 4;
#X connect 29 0 173 5;
#X connect 33 0 21 0;
#X connect 39 0 40 0;
#X connect 40 0 210 0;
#X connect 41 0 39 0;
#X connect 41 0 53 0;
#X connect 42 0 162 0;
#X connect 45 0 180 0;
#X connect 47 0 45 0;
#X connect 50 0 46 0;
#X connect 50 0 47 0;
#X connect 53 0 50 0;
#X connect 60 0 61 0;
#X connect 61 0 213 0;
#X connect 62 0 60 0;
#X connect 62 0 74 0;
#X connect 63 0 163 0;
#X connect 66 0 181 0;
#X connect 68 0 66 0;
#X connect 71 0 67 0;
#X connect 71 0 68 0;
#X connect 74 0 71 0;
#X connect 78 0 79 0;
#X connect 79 0 216 0;
#X connect 80 0 78 0;
#X connect 80 0 92 0;
#X connect 81 0 164 0;
#X connect 84 0 182 0;
#X connect 86 0 84 0;
#X connect 89 0 85 0;
#X connect 89 0 86 0;
#X connect 92 0 89 0;
#X connect 102 0 232 0;
#X connect 103 0 232 1;
#X connect 104 0 232 2;
#X connect 105 0 232 3;
#X connect 106 0 232 4;
#X connect 107 0 232 5;
#X connect 111 0 181 1;
#X connect 112 0 200 1;
#X connect 113 0 180 1;
#X connect 114 0 182 1;
#X connect 115 0 233 0;
#X connect 116 0 233 1;
#X connect 117 0 233 2;
#X connect 118 0 233 3;
#X connect 119 0 233 4;
#X connect 120 0 233 5;
#X connect 121 0 160 0;
#X connect 122 0 121 0;
#X connect 122 0 134 0;
#X connect 123 0 165 0;
#X connect 126 0 183 0;
#X connect 128 0 126 0;
#X connect 131 0 127 0;
#X connect 131 0 128 0;
#X connect 134 0 131 0;
#X connect 138 0 139 0;
#X connect 139 0 222 0;
#X connect 140 0 138 0;
#X connect 140 0 152 0;
#X connect 141 0 166 0;
#X connect 144 0 184 0;
#X connect 146 0 144 0;
#X connect 149 0 145 0;
#X connect 149 0 146 0;
#X connect 152 0 149 0;
#X connect 158 0 183 1;
#X connect 159 0 184 1;
#X connect 160 0 219 0;
#X connect 161 0 7 0;
#X connect 162 0 41 0;
#X connect 163 0 62 0;
#X connect 164 0 80 0;
#X connect 165 0 122 0;
#X connect 166 0 140 0;
#X connect 174 0 236 0;
#X connect 175 0 243 0;
#X connect 176 0 237 0;
#X connect 177 0 239 0;
#X connect 178 0 234 0;
#X connect 179 0 244 0;
#X connect 180 0 59 0;
#X connect 181 0 98 0;
#X connect 182 0 101 0;
#X connect 183 0 169 0;
#X connect 184 0 172 0;
#X connect 200 0 32 0;
#X connect 207 0 231 0;
#X connect 208 0 207 1;
#X connect 209 0 208 0;
#X connect 210 0 242 0;
#X connect 211 0 210 1;
#X connect 212 0 211 0;
#X connect 213 0 241 0;
#X connect 214 0 213 1;
#X connect 215 0 214 0;
#X connect 216 0 240 0;
#X connect 217 0 216 1;
#X connect 218 0 217 0;
#X connect 219 0 235 0;
#X connect 220 0 219 1;
#X connect 221 0 220 0;
#X connect 222 0 238 0;
#X connect 223 0 222 1;
#X connect 224 0 223 0;
#X connect 231 0 30 0;
#X connect 231 1 31 0;
#X connect 231 2 112 0;
#X connect 234 0 123 0;
#X connect 235 0 167 0;
#X connect 235 1 168 0;
#X connect 235 2 158 0;
#X connect 236 0 10 0;
#X connect 237 0 63 0;
#X connect 238 0 170 0;
#X connect 238 1 171 0;
#X connect 238 2 159 0;
#X connect 239 0 81 0;
#X connect 240 0 99 0;
#X connect 240 1 100 0;
#X connect 240 2 114 0;
#X connect 241 0 96 0;
#X connect 241 1 97 0;
#X connect 241 2 111 0;
#X connect 242 0 58 0;
#X connect 242 1 57 0;
#X connect 242 2 113 0;
#X connect 243 0 42 0;
#X connect 244 0 141 0;
#X coords 0 643 1 642 85 20 0;
